<?xml version="1.0" encoding="utf-8" standalone="no"?>
<!DOCTYPE svg PUBLIC "-//W3C//DTD SVG 1.1//EN"
  "http://www.w3.org/Graphics/SVG/1.1/DTD/svg11.dtd">
<!-- Created with matplotlib (http://matplotlib.org/) -->
<svg height="648pt" version="1.1" viewBox="0 0 1080 648" width="1080pt" xmlns="http://www.w3.org/2000/svg" xmlns:xlink="http://www.w3.org/1999/xlink">
 <defs>
  <style type="text/css">
*{stroke-linecap:butt;stroke-linejoin:round;}
  </style>
 </defs>
 <g id="figure_1">
  <g id="patch_1">
   <path d="M 0 648 
L 1080 648 
L 1080 0 
L 0 0 
z
" style="fill:none;"/>
  </g>
  <g id="axes_1">
   <g id="patch_2">
    <path d="M 108 615.6 
L 1026 615.6 
L 1026 32.4 
L 108 32.4 
z
" style="fill:none;"/>
   </g>
   <g id="matplotlib.axis_1">
    <g id="xtick_1">
     <g id="line2d_1">
      <defs>
       <path d="M 0 0 
L 0 3.5 
" id="m599b650e94" style="stroke:#000000;stroke-width:0.8;"/>
      </defs>
      <g>
       <use style="stroke:#000000;stroke-width:0.8;" x="108" xlink:href="#m599b650e94" y="615.6"/>
      </g>
     </g>
     <g id="text_1">
      <!-- 0 -->
      <defs>
       <path d="M 31.78125 66.40625 
Q 24.171875 66.40625 20.328125 58.90625 
Q 16.5 51.421875 16.5 36.375 
Q 16.5 21.390625 20.328125 13.890625 
Q 24.171875 6.390625 31.78125 6.390625 
Q 39.453125 6.390625 43.28125 13.890625 
Q 47.125 21.390625 47.125 36.375 
Q 47.125 51.421875 43.28125 58.90625 
Q 39.453125 66.40625 31.78125 66.40625 
z
M 31.78125 74.21875 
Q 44.046875 74.21875 50.515625 64.515625 
Q 56.984375 54.828125 56.984375 36.375 
Q 56.984375 17.96875 50.515625 8.265625 
Q 44.046875 -1.421875 31.78125 -1.421875 
Q 19.53125 -1.421875 13.0625 8.265625 
Q 6.59375 17.96875 6.59375 36.375 
Q 6.59375 54.828125 13.0625 64.515625 
Q 19.53125 74.21875 31.78125 74.21875 
z
" id="DejaVuSans-30"/>
      </defs>
      <g transform="translate(104.81875 630.198437)scale(0.1 -0.1)">
       <use xlink:href="#DejaVuSans-30"/>
      </g>
     </g>
    </g>
    <g id="xtick_2">
     <g id="line2d_2">
      <g>
       <use style="stroke:#000000;stroke-width:0.8;" x="291.6" xlink:href="#m599b650e94" y="615.6"/>
      </g>
     </g>
     <g id="text_2">
      <!-- 200 -->
      <defs>
       <path d="M 19.1875 8.296875 
L 53.609375 8.296875 
L 53.609375 0 
L 7.328125 0 
L 7.328125 8.296875 
Q 12.9375 14.109375 22.625 23.890625 
Q 32.328125 33.6875 34.8125 36.53125 
Q 39.546875 41.84375 41.421875 45.53125 
Q 43.3125 49.21875 43.3125 52.78125 
Q 43.3125 58.59375 39.234375 62.25 
Q 35.15625 65.921875 28.609375 65.921875 
Q 23.96875 65.921875 18.8125 64.3125 
Q 13.671875 62.703125 7.8125 59.421875 
L 7.8125 69.390625 
Q 13.765625 71.78125 18.9375 73 
Q 24.125 74.21875 28.421875 74.21875 
Q 39.75 74.21875 46.484375 68.546875 
Q 53.21875 62.890625 53.21875 53.421875 
Q 53.21875 48.921875 51.53125 44.890625 
Q 49.859375 40.875 45.40625 35.40625 
Q 44.1875 33.984375 37.640625 27.21875 
Q 31.109375 20.453125 19.1875 8.296875 
z
" id="DejaVuSans-32"/>
      </defs>
      <g transform="translate(282.05625 630.198437)scale(0.1 -0.1)">
       <use xlink:href="#DejaVuSans-32"/>
       <use x="63.623047" xlink:href="#DejaVuSans-30"/>
       <use x="127.246094" xlink:href="#DejaVuSans-30"/>
      </g>
     </g>
    </g>
    <g id="xtick_3">
     <g id="line2d_3">
      <g>
       <use style="stroke:#000000;stroke-width:0.8;" x="475.2" xlink:href="#m599b650e94" y="615.6"/>
      </g>
     </g>
     <g id="text_3">
      <!-- 400 -->
      <defs>
       <path d="M 37.796875 64.3125 
L 12.890625 25.390625 
L 37.796875 25.390625 
z
M 35.203125 72.90625 
L 47.609375 72.90625 
L 47.609375 25.390625 
L 58.015625 25.390625 
L 58.015625 17.1875 
L 47.609375 17.1875 
L 47.609375 0 
L 37.796875 0 
L 37.796875 17.1875 
L 4.890625 17.1875 
L 4.890625 26.703125 
z
" id="DejaVuSans-34"/>
      </defs>
      <g transform="translate(465.65625 630.198437)scale(0.1 -0.1)">
       <use xlink:href="#DejaVuSans-34"/>
       <use x="63.623047" xlink:href="#DejaVuSans-30"/>
       <use x="127.246094" xlink:href="#DejaVuSans-30"/>
      </g>
     </g>
    </g>
    <g id="xtick_4">
     <g id="line2d_4">
      <g>
       <use style="stroke:#000000;stroke-width:0.8;" x="658.8" xlink:href="#m599b650e94" y="615.6"/>
      </g>
     </g>
     <g id="text_4">
      <!-- 600 -->
      <defs>
       <path d="M 33.015625 40.375 
Q 26.375 40.375 22.484375 35.828125 
Q 18.609375 31.296875 18.609375 23.390625 
Q 18.609375 15.53125 22.484375 10.953125 
Q 26.375 6.390625 33.015625 6.390625 
Q 39.65625 6.390625 43.53125 10.953125 
Q 47.40625 15.53125 47.40625 23.390625 
Q 47.40625 31.296875 43.53125 35.828125 
Q 39.65625 40.375 33.015625 40.375 
z
M 52.59375 71.296875 
L 52.59375 62.3125 
Q 48.875 64.0625 45.09375 64.984375 
Q 41.3125 65.921875 37.59375 65.921875 
Q 27.828125 65.921875 22.671875 59.328125 
Q 17.53125 52.734375 16.796875 39.40625 
Q 19.671875 43.65625 24.015625 45.921875 
Q 28.375 48.1875 33.59375 48.1875 
Q 44.578125 48.1875 50.953125 41.515625 
Q 57.328125 34.859375 57.328125 23.390625 
Q 57.328125 12.15625 50.6875 5.359375 
Q 44.046875 -1.421875 33.015625 -1.421875 
Q 20.359375 -1.421875 13.671875 8.265625 
Q 6.984375 17.96875 6.984375 36.375 
Q 6.984375 53.65625 15.1875 63.9375 
Q 23.390625 74.21875 37.203125 74.21875 
Q 40.921875 74.21875 44.703125 73.484375 
Q 48.484375 72.75 52.59375 71.296875 
z
" id="DejaVuSans-36"/>
      </defs>
      <g transform="translate(649.25625 630.198437)scale(0.1 -0.1)">
       <use xlink:href="#DejaVuSans-36"/>
       <use x="63.623047" xlink:href="#DejaVuSans-30"/>
       <use x="127.246094" xlink:href="#DejaVuSans-30"/>
      </g>
     </g>
    </g>
    <g id="xtick_5">
     <g id="line2d_5">
      <g>
       <use style="stroke:#000000;stroke-width:0.8;" x="842.4" xlink:href="#m599b650e94" y="615.6"/>
      </g>
     </g>
     <g id="text_5">
      <!-- 800 -->
      <defs>
       <path d="M 31.78125 34.625 
Q 24.75 34.625 20.71875 30.859375 
Q 16.703125 27.09375 16.703125 20.515625 
Q 16.703125 13.921875 20.71875 10.15625 
Q 24.75 6.390625 31.78125 6.390625 
Q 38.8125 6.390625 42.859375 10.171875 
Q 46.921875 13.96875 46.921875 20.515625 
Q 46.921875 27.09375 42.890625 30.859375 
Q 38.875 34.625 31.78125 34.625 
z
M 21.921875 38.8125 
Q 15.578125 40.375 12.03125 44.71875 
Q 8.5 49.078125 8.5 55.328125 
Q 8.5 64.0625 14.71875 69.140625 
Q 20.953125 74.21875 31.78125 74.21875 
Q 42.671875 74.21875 48.875 69.140625 
Q 55.078125 64.0625 55.078125 55.328125 
Q 55.078125 49.078125 51.53125 44.71875 
Q 48 40.375 41.703125 38.8125 
Q 48.828125 37.15625 52.796875 32.3125 
Q 56.78125 27.484375 56.78125 20.515625 
Q 56.78125 9.90625 50.3125 4.234375 
Q 43.84375 -1.421875 31.78125 -1.421875 
Q 19.734375 -1.421875 13.25 4.234375 
Q 6.78125 9.90625 6.78125 20.515625 
Q 6.78125 27.484375 10.78125 32.3125 
Q 14.796875 37.15625 21.921875 38.8125 
z
M 18.3125 54.390625 
Q 18.3125 48.734375 21.84375 45.5625 
Q 25.390625 42.390625 31.78125 42.390625 
Q 38.140625 42.390625 41.71875 45.5625 
Q 45.3125 48.734375 45.3125 54.390625 
Q 45.3125 60.0625 41.71875 63.234375 
Q 38.140625 66.40625 31.78125 66.40625 
Q 25.390625 66.40625 21.84375 63.234375 
Q 18.3125 60.0625 18.3125 54.390625 
z
" id="DejaVuSans-38"/>
      </defs>
      <g transform="translate(832.85625 630.198437)scale(0.1 -0.1)">
       <use xlink:href="#DejaVuSans-38"/>
       <use x="63.623047" xlink:href="#DejaVuSans-30"/>
       <use x="127.246094" xlink:href="#DejaVuSans-30"/>
      </g>
     </g>
    </g>
    <g id="xtick_6">
     <g id="line2d_6">
      <g>
       <use style="stroke:#000000;stroke-width:0.8;" x="1026" xlink:href="#m599b650e94" y="615.6"/>
      </g>
     </g>
     <g id="text_6">
      <!-- 1000 -->
      <defs>
       <path d="M 12.40625 8.296875 
L 28.515625 8.296875 
L 28.515625 63.921875 
L 10.984375 60.40625 
L 10.984375 69.390625 
L 28.421875 72.90625 
L 38.28125 72.90625 
L 38.28125 8.296875 
L 54.390625 8.296875 
L 54.390625 0 
L 12.40625 0 
z
" id="DejaVuSans-31"/>
      </defs>
      <g transform="translate(1013.275 630.198437)scale(0.1 -0.1)">
       <use xlink:href="#DejaVuSans-31"/>
       <use x="63.623047" xlink:href="#DejaVuSans-30"/>
       <use x="127.246094" xlink:href="#DejaVuSans-30"/>
       <use x="190.869141" xlink:href="#DejaVuSans-30"/>
      </g>
     </g>
    </g>
   </g>
   <g id="matplotlib.axis_2">
    <g id="ytick_1">
     <g id="line2d_7">
      <defs>
       <path d="M 0 0 
L -3.5 0 
" id="mb5d71e33af" style="stroke:#000000;stroke-width:0.8;"/>
      </defs>
      <g>
       <use style="stroke:#000000;stroke-width:0.8;" x="108" xlink:href="#mb5d71e33af" y="589.090909"/>
      </g>
     </g>
     <g id="text_7">
      <!-- 0 -->
      <g transform="translate(94.6375 592.890128)scale(0.1 -0.1)">
       <use xlink:href="#DejaVuSans-30"/>
      </g>
     </g>
    </g>
    <g id="ytick_2">
     <g id="line2d_8">
      <g>
       <use style="stroke:#000000;stroke-width:0.8;" x="108" xlink:href="#mb5d71e33af" y="513.652403"/>
      </g>
     </g>
     <g id="text_8">
      <!-- 250 -->
      <defs>
       <path d="M 10.796875 72.90625 
L 49.515625 72.90625 
L 49.515625 64.59375 
L 19.828125 64.59375 
L 19.828125 46.734375 
Q 21.96875 47.46875 24.109375 47.828125 
Q 26.265625 48.1875 28.421875 48.1875 
Q 40.625 48.1875 47.75 41.5 
Q 54.890625 34.8125 54.890625 23.390625 
Q 54.890625 11.625 47.5625 5.09375 
Q 40.234375 -1.421875 26.90625 -1.421875 
Q 22.3125 -1.421875 17.546875 -0.640625 
Q 12.796875 0.140625 7.71875 1.703125 
L 7.71875 11.625 
Q 12.109375 9.234375 16.796875 8.0625 
Q 21.484375 6.890625 26.703125 6.890625 
Q 35.15625 6.890625 40.078125 11.328125 
Q 45.015625 15.765625 45.015625 23.390625 
Q 45.015625 31 40.078125 35.4375 
Q 35.15625 39.890625 26.703125 39.890625 
Q 22.75 39.890625 18.8125 39.015625 
Q 14.890625 38.140625 10.796875 36.28125 
z
" id="DejaVuSans-35"/>
      </defs>
      <g transform="translate(81.9125 517.451622)scale(0.1 -0.1)">
       <use xlink:href="#DejaVuSans-32"/>
       <use x="63.623047" xlink:href="#DejaVuSans-35"/>
       <use x="127.246094" xlink:href="#DejaVuSans-30"/>
      </g>
     </g>
    </g>
    <g id="ytick_3">
     <g id="line2d_9">
      <g>
       <use style="stroke:#000000;stroke-width:0.8;" x="108" xlink:href="#mb5d71e33af" y="438.213898"/>
      </g>
     </g>
     <g id="text_9">
      <!-- 500 -->
      <g transform="translate(81.9125 442.013116)scale(0.1 -0.1)">
       <use xlink:href="#DejaVuSans-35"/>
       <use x="63.623047" xlink:href="#DejaVuSans-30"/>
       <use x="127.246094" xlink:href="#DejaVuSans-30"/>
      </g>
     </g>
    </g>
    <g id="ytick_4">
     <g id="line2d_10">
      <g>
       <use style="stroke:#000000;stroke-width:0.8;" x="108" xlink:href="#mb5d71e33af" y="362.775392"/>
      </g>
     </g>
     <g id="text_10">
      <!-- 750 -->
      <defs>
       <path d="M 8.203125 72.90625 
L 55.078125 72.90625 
L 55.078125 68.703125 
L 28.609375 0 
L 18.3125 0 
L 43.21875 64.59375 
L 8.203125 64.59375 
z
" id="DejaVuSans-37"/>
      </defs>
      <g transform="translate(81.9125 366.574611)scale(0.1 -0.1)">
       <use xlink:href="#DejaVuSans-37"/>
       <use x="63.623047" xlink:href="#DejaVuSans-35"/>
       <use x="127.246094" xlink:href="#DejaVuSans-30"/>
      </g>
     </g>
    </g>
    <g id="ytick_5">
     <g id="line2d_11">
      <g>
       <use style="stroke:#000000;stroke-width:0.8;" x="108" xlink:href="#mb5d71e33af" y="287.336886"/>
      </g>
     </g>
     <g id="text_11">
      <!-- 1000 -->
      <g transform="translate(75.55 291.136105)scale(0.1 -0.1)">
       <use xlink:href="#DejaVuSans-31"/>
       <use x="63.623047" xlink:href="#DejaVuSans-30"/>
       <use x="127.246094" xlink:href="#DejaVuSans-30"/>
       <use x="190.869141" xlink:href="#DejaVuSans-30"/>
      </g>
     </g>
    </g>
    <g id="ytick_6">
     <g id="line2d_12">
      <g>
       <use style="stroke:#000000;stroke-width:0.8;" x="108" xlink:href="#mb5d71e33af" y="211.898381"/>
      </g>
     </g>
     <g id="text_12">
      <!-- 1250 -->
      <g transform="translate(75.55 215.697599)scale(0.1 -0.1)">
       <use xlink:href="#DejaVuSans-31"/>
       <use x="63.623047" xlink:href="#DejaVuSans-32"/>
       <use x="127.246094" xlink:href="#DejaVuSans-35"/>
       <use x="190.869141" xlink:href="#DejaVuSans-30"/>
      </g>
     </g>
    </g>
    <g id="ytick_7">
     <g id="line2d_13">
      <g>
       <use style="stroke:#000000;stroke-width:0.8;" x="108" xlink:href="#mb5d71e33af" y="136.459875"/>
      </g>
     </g>
     <g id="text_13">
      <!-- 1500 -->
      <g transform="translate(75.55 140.259094)scale(0.1 -0.1)">
       <use xlink:href="#DejaVuSans-31"/>
       <use x="63.623047" xlink:href="#DejaVuSans-35"/>
       <use x="127.246094" xlink:href="#DejaVuSans-30"/>
       <use x="190.869141" xlink:href="#DejaVuSans-30"/>
      </g>
     </g>
    </g>
    <g id="ytick_8">
     <g id="line2d_14">
      <g>
       <use style="stroke:#000000;stroke-width:0.8;" x="108" xlink:href="#mb5d71e33af" y="61.021369"/>
      </g>
     </g>
     <g id="text_14">
      <!-- 1750 -->
      <g transform="translate(75.55 64.820588)scale(0.1 -0.1)">
       <use xlink:href="#DejaVuSans-31"/>
       <use x="63.623047" xlink:href="#DejaVuSans-37"/>
       <use x="127.246094" xlink:href="#DejaVuSans-35"/>
       <use x="190.869141" xlink:href="#DejaVuSans-30"/>
      </g>
     </g>
    </g>
   </g>
   <g id="line2d_15">
    <path clip-path="url(#p9e7c5649a6)" d="M 108 557.104983 
L 108.918 555.897967 
L 109.836 553.483934 
L 110.754 549.862886 
L 111.672 544.431314 
L 112.59 538.094479 
L 113.508 532.662907 
L 114.426 529.041859 
L 116.262 524.213794 
L 117.18 520.8945 
L 119.016 510.936617 
L 120.852 501.280488 
L 122.688 492.227868 
L 124.524 480.761215 
L 126.36 465.975268 
L 130.95 427.652507 
L 137.376 375.449061 
L 139.212 363.680654 
L 141.048 352.214001 
L 143.802 332.298236 
L 144.72 326.866663 
L 145.638 322.943861 
L 146.556 320.529829 
L 147.474 319.624567 
L 148.392 319.021059 
L 149.31 318.719305 
L 151.146 318.719305 
L 152.064 319.926321 
L 152.982 321.736845 
L 153.9 325.056139 
L 156.654 336.824546 
L 157.572 340.14384 
L 158.49 342.557872 
L 159.408 345.575413 
L 160.326 349.799969 
L 161.244 355.533295 
L 162.162 363.680654 
L 165.834 404.115693 
L 166.752 411.659544 
L 169.506 430.368293 
L 170.424 438.515652 
L 172.26 458.733171 
L 174.096 478.648937 
L 175.932 494.038392 
L 177.768 507.617323 
L 179.604 521.799762 
L 180.522 528.43835 
L 181.44 533.869923 
L 182.358 538.094479 
L 185.112 548.957624 
L 186.03 553.18218 
L 186.948 556.803229 
L 187.866 559.820769 
L 188.784 561.631293 
L 189.702 561.933047 
L 190.62 561.933047 
L 191.538 562.234801 
L 192.456 563.140063 
L 193.374 564.648833 
L 194.292 566.761111 
L 195.21 568.571636 
L 196.128 569.778652 
L 197.046 569.778652 
L 197.964 569.476898 
L 198.882 568.87339 
L 199.8 568.571636 
L 200.718 569.476898 
L 201.636 570.985668 
L 202.554 572.796192 
L 203.472 574.304962 
L 204.39 575.210224 
L 205.308 575.511978 
L 207.144 574.90847 
L 208.98 573.701454 
L 209.898 573.3997 
L 210.816 573.3997 
L 211.734 573.701454 
L 213.57 575.511978 
L 215.406 577.92601 
L 216.324 578.227764 
L 217.242 578.227764 
L 218.16 577.624256 
L 219.996 575.813732 
L 221.832 575.210224 
L 224.586 575.210224 
L 225.504 574.90847 
L 228.258 575.813732 
L 229.176 576.41724 
L 231.012 576.41724 
L 231.93 575.813732 
L 233.766 574.003208 
L 234.684 573.3997 
L 237.438 570.683914 
L 239.274 568.269882 
L 240.192 567.364619 
L 241.11 567.364619 
L 242.028 567.968127 
L 242.946 569.175144 
L 243.864 570.683914 
L 244.782 572.494438 
L 245.7 574.003208 
L 246.618 575.210224 
L 247.536 575.813732 
L 248.454 576.115486 
L 249.372 576.115486 
L 250.29 575.813732 
L 251.208 575.813732 
L 253.044 576.41724 
L 253.962 577.020748 
L 255.798 577.624256 
L 257.634 576.41724 
L 258.552 575.511978 
L 261.306 573.701454 
L 262.224 572.796192 
L 263.142 571.589176 
L 264.06 569.476898 
L 264.978 566.761111 
L 265.896 563.441817 
L 267.732 555.294459 
L 268.65 549.561132 
L 269.568 542.62079 
L 270.486 533.266415 
L 271.404 522.101516 
L 273.24 493.736638 
L 275.076 464.164744 
L 276.912 439.722668 
L 279.666 407.434987 
L 281.502 382.087649 
L 284.256 343.463134 
L 286.092 317.512289 
L 287.01 302.122833 
L 288.846 265.308843 
L 290.682 228.796606 
L 291.6 214.614167 
L 292.518 204.958038 
L 293.436 199.82822 
L 294.354 199.82822 
L 295.272 204.656284 
L 296.19 214.915921 
L 297.108 230.305376 
L 298.026 251.126403 
L 298.944 276.473741 
L 300.78 336.522792 
L 303.534 428.256015 
L 305.37 480.761215 
L 306.288 503.392767 
L 307.206 522.705024 
L 308.124 538.697987 
L 309.042 550.768148 
L 309.96 559.519015 
L 310.878 565.554095 
L 311.796 569.175144 
L 313.632 573.701454 
L 315.468 577.92601 
L 318.222 584.866353 
L 319.14 586.073369 
L 320.058 586.073369 
L 320.976 585.168107 
L 322.812 582.150567 
L 323.73 581.245304 
L 324.648 581.245304 
L 327.402 583.961091 
L 328.32 584.262845 
L 329.238 583.961091 
L 330.156 583.055829 
L 331.074 581.547059 
L 331.992 580.641796 
L 332.91 580.038288 
L 333.828 580.340042 
L 334.746 581.245304 
L 335.664 582.452321 
L 336.582 584.262845 
L 337.5 585.469861 
L 338.418 585.771615 
L 339.336 584.866353 
L 340.254 583.055829 
L 342.09 578.529518 
L 343.008 576.718994 
L 343.926 576.41724 
L 344.844 577.322502 
L 346.68 580.340042 
L 347.598 581.547059 
L 348.516 581.848813 
L 349.434 580.94355 
L 352.188 576.41724 
L 353.106 575.813732 
L 354.024 575.813732 
L 354.942 576.41724 
L 356.778 578.227764 
L 357.696 578.831272 
L 361.368 578.831272 
L 362.286 579.43478 
L 364.122 581.848813 
L 365.04 582.754075 
L 365.958 583.357583 
L 366.876 582.754075 
L 367.794 581.547059 
L 368.712 580.038288 
L 369.63 578.227764 
L 370.548 577.322502 
L 371.466 577.322502 
L 372.384 577.624256 
L 373.302 578.529518 
L 374.22 579.133026 
L 375.138 579.133026 
L 376.056 578.529518 
L 376.974 577.322502 
L 377.892 576.718994 
L 378.81 576.41724 
L 379.728 576.718994 
L 380.646 577.92601 
L 381.564 579.43478 
L 382.482 580.641796 
L 383.4 581.547059 
L 384.318 581.547059 
L 387.072 580.641796 
L 387.99 580.94355 
L 388.908 581.848813 
L 389.826 583.357583 
L 391.662 585.771615 
L 392.58 586.073369 
L 393.498 586.073369 
L 395.334 584.866353 
L 396.252 584.564599 
L 397.17 584.866353 
L 398.088 585.469861 
L 399.924 587.280385 
L 400.842 587.582139 
L 401.76 587.582139 
L 403.596 585.771615 
L 405.432 583.357583 
L 406.35 582.754075 
L 408.186 582.150567 
L 409.104 582.452321 
L 410.022 583.055829 
L 410.94 583.357583 
L 412.776 584.564599 
L 413.694 584.866353 
L 414.612 584.866353 
L 416.448 584.262845 
L 417.366 583.659337 
L 418.284 583.357583 
L 419.202 582.754075 
L 420.12 582.452321 
L 421.038 582.452321 
L 421.956 582.150567 
L 424.71 582.150567 
L 425.628 581.848813 
L 427.464 581.848813 
L 429.3 580.641796 
L 431.136 578.227764 
L 432.054 577.322502 
L 432.972 577.020748 
L 433.89 577.624256 
L 434.808 579.133026 
L 435.726 580.94355 
L 436.644 583.055829 
L 437.562 584.866353 
L 438.48 585.771615 
L 439.398 585.771615 
L 440.316 584.866353 
L 441.234 583.357583 
L 442.152 580.641796 
L 443.07 576.115486 
L 443.988 567.968127 
L 444.906 554.992705 
L 445.824 535.076939 
L 446.742 507.013815 
L 447.66 470.501578 
L 448.578 425.238475 
L 450.414 317.210534 
L 452.25 209.786102 
L 453.168 169.049309 
L 454.086 143.400217 
L 455.004 135.856367 
L 455.922 147.624774 
L 456.84 176.291406 
L 457.758 217.933461 
L 460.512 363.3789 
L 461.43 402.003415 
L 462.348 430.066539 
L 463.266 446.361256 
L 464.184 450.887567 
L 465.102 445.15424 
L 466.02 431.575309 
L 467.856 394.761318 
L 468.774 379.975371 
L 469.692 372.733275 
L 470.61 375.147307 
L 471.528 387.217468 
L 472.446 408.038495 
L 474.282 463.86299 
L 476.118 517.87696 
L 477.036 538.396233 
L 477.954 553.785688 
L 478.872 564.347079 
L 479.79 571.287422 
L 480.708 575.210224 
L 481.626 577.92601 
L 482.544 579.43478 
L 483.462 580.641796 
L 484.38 580.94355 
L 485.298 580.340042 
L 486.216 578.831272 
L 487.134 577.020748 
L 488.052 574.90847 
L 488.97 573.701454 
L 489.888 573.701454 
L 490.806 574.90847 
L 493.56 583.357583 
L 494.478 585.168107 
L 495.396 586.073369 
L 497.232 586.073369 
L 498.15 585.771615 
L 499.068 586.073369 
L 499.986 586.978631 
L 500.904 587.582139 
L 501.822 588.487401 
L 503.658 589.090909 
L 507.33 587.883893 
L 508.248 587.883893 
L 511.92 589.090909 
L 514.674 589.090909 
L 515.592 588.789155 
L 518.346 588.789155 
L 519.264 589.090909 
L 522.018 589.090909 
L 523.854 588.487401 
L 524.772 588.487401 
L 525.69 588.185647 
L 528.444 589.090909 
L 531.198 589.090909 
L 532.116 588.185647 
L 533.034 586.073369 
L 533.952 581.848813 
L 534.87 575.813732 
L 535.788 566.459357 
L 536.706 554.087442 
L 537.624 538.697987 
L 540.378 485.589279 
L 541.296 472.312102 
L 542.214 464.768252 
L 543.132 463.561236 
L 544.05 468.992808 
L 544.968 480.157707 
L 545.886 495.547162 
L 548.64 547.750608 
L 549.558 561.631293 
L 550.476 572.192684 
L 551.394 579.43478 
L 552.312 583.357583 
L 553.23 584.866353 
L 554.148 585.168107 
L 555.066 584.866353 
L 555.984 584.866353 
L 556.902 584.564599 
L 559.656 584.564599 
L 560.574 584.866353 
L 561.492 585.469861 
L 562.41 586.375123 
L 563.328 587.582139 
L 564.246 588.185647 
L 565.164 588.487401 
L 566.082 587.883893 
L 567 586.978631 
L 568.836 585.771615 
L 569.754 586.073369 
L 572.508 588.789155 
L 573.426 589.090909 
L 576.18 589.090909 
L 577.098 588.789155 
L 578.016 589.090909 
L 583.524 589.090909 
L 586.278 588.185647 
L 587.196 587.280385 
L 588.114 586.073369 
L 589.95 583.055829 
L 591.786 580.641796 
L 592.704 580.038288 
L 593.622 579.736534 
L 594.54 580.038288 
L 595.458 580.94355 
L 597.294 583.357583 
L 598.212 584.262845 
L 600.048 585.469861 
L 600.966 585.469861 
L 602.802 586.073369 
L 604.638 587.280385 
L 605.556 588.185647 
L 606.474 588.789155 
L 607.392 589.090909 
L 609.228 589.090909 
L 610.146 588.487401 
L 611.064 587.582139 
L 612.9 585.168107 
L 613.818 584.262845 
L 614.736 583.659337 
L 615.654 583.357583 
L 616.572 583.961091 
L 617.49 584.866353 
L 619.326 587.280385 
L 621.162 589.090909 
L 645.948 589.090909 
L 649.62 586.676877 
L 651.456 587.280385 
L 652.374 587.280385 
L 653.292 586.978631 
L 654.21 586.073369 
L 655.128 584.564599 
L 656.046 583.659337 
L 656.964 583.357583 
L 657.882 583.659337 
L 660.636 587.280385 
L 662.472 589.090909 
L 664.308 589.090909 
L 665.226 585.168107 
L 666.144 571.287422 
L 667.062 543.827806 
L 667.98 498.866456 
L 668.898 435.498111 
L 670.734 270.438661 
L 671.652 186.249289 
L 672.57 116.242355 
L 673.488 71.281006 
L 674.406 58.909091 
L 675.324 81.540643 
L 676.242 135.856367 
L 677.16 213.708905 
L 678.996 390.235008 
L 679.914 465.975268 
L 680.832 523.610286 
L 681.75 561.329539 
L 682.668 581.547059 
L 683.586 589.090909 
L 685.422 589.090909 
L 686.34 588.487401 
L 688.176 589.090909 
L 690.012 589.090909 
L 691.848 586.073369 
L 692.766 585.168107 
L 693.684 584.866353 
L 694.602 585.168107 
L 695.52 585.771615 
L 697.356 586.375123 
L 698.274 586.375123 
L 699.192 585.469861 
L 700.11 582.754075 
L 701.028 577.020748 
L 701.946 566.459357 
L 702.864 550.466394 
L 703.782 528.740105 
L 706.536 455.715631 
L 707.454 440.929684 
L 708.372 436.403374 
L 709.29 442.438454 
L 710.208 457.827909 
L 711.126 480.157707 
L 712.962 530.248875 
L 713.88 551.67341 
L 714.798 568.269882 
L 715.716 579.43478 
L 716.634 585.771615 
L 717.552 588.789155 
L 718.47 589.090909 
L 724.896 589.090909 
L 725.814 588.487401 
L 726.732 588.185647 
L 727.65 587.582139 
L 728.568 587.280385 
L 730.404 587.280385 
L 731.322 587.582139 
L 734.994 587.582139 
L 738.666 588.789155 
L 739.584 588.487401 
L 740.502 587.883893 
L 741.42 586.978631 
L 742.338 586.375123 
L 743.256 585.469861 
L 746.928 584.262845 
L 747.846 583.659337 
L 748.764 582.754075 
L 749.682 582.150567 
L 750.6 581.848813 
L 751.518 582.150567 
L 752.436 583.055829 
L 753.354 584.262845 
L 754.272 585.771615 
L 756.108 588.185647 
L 757.944 588.789155 
L 758.862 588.487401 
L 759.78 588.487401 
L 762.534 587.582139 
L 764.37 585.771615 
L 765.288 584.262845 
L 766.206 583.357583 
L 767.124 582.754075 
L 768.042 582.754075 
L 768.96 583.961091 
L 769.878 585.469861 
L 770.796 587.280385 
L 771.714 588.487401 
L 772.632 588.789155 
L 773.55 587.582139 
L 774.468 584.564599 
L 775.386 579.43478 
L 776.304 571.589176 
L 777.222 561.329539 
L 778.14 547.750608 
L 779.976 514.557665 
L 780.894 497.961194 
L 781.812 484.080509 
L 782.73 475.329642 
L 783.648 473.820872 
L 784.566 480.459461 
L 785.484 494.038392 
L 787.32 533.568169 
L 788.238 553.483934 
L 789.156 570.080406 
L 790.074 581.245304 
L 790.992 587.582139 
L 791.91 589.090909 
L 792.828 589.090909 
L 793.746 587.582139 
L 794.664 585.771615 
L 795.582 584.564599 
L 796.5 583.659337 
L 798.336 583.055829 
L 800.172 583.659337 
L 802.008 584.866353 
L 804.762 587.582139 
L 805.68 588.185647 
L 806.598 589.090909 
L 808.434 589.090909 
L 809.352 586.978631 
L 810.27 580.641796 
L 811.188 568.87339 
L 812.106 550.16464 
L 813.024 524.817302 
L 815.778 437.308636 
L 816.696 419.505148 
L 817.614 414.073576 
L 818.532 422.824442 
L 819.45 443.64547 
L 821.286 505.203291 
L 822.204 535.076939 
L 823.122 559.217261 
L 824.04 575.511978 
L 824.958 584.866353 
L 825.876 588.487401 
L 826.794 589.090909 
L 831.384 589.090909 
L 832.302 588.487401 
L 834.138 586.073369 
L 835.056 585.469861 
L 835.974 585.469861 
L 836.892 586.073369 
L 837.81 586.978631 
L 838.728 587.582139 
L 839.646 587.883893 
L 840.564 587.582139 
L 842.4 586.375123 
L 843.318 586.073369 
L 844.236 586.073369 
L 847.908 588.487401 
L 849.744 589.090909 
L 854.334 589.090909 
L 855.252 588.789155 
L 856.17 589.090909 
L 858.924 589.090909 
L 859.842 588.789155 
L 860.76 587.280385 
L 862.596 583.659337 
L 863.514 582.754075 
L 864.432 582.754075 
L 865.35 583.961091 
L 867.186 587.582139 
L 868.104 588.789155 
L 869.022 589.090909 
L 869.94 589.090909 
L 870.858 588.789155 
L 871.776 588.185647 
L 872.694 587.280385 
L 873.612 586.676877 
L 874.53 586.676877 
L 875.448 586.978631 
L 878.202 588.789155 
L 879.12 589.090909 
L 882.792 589.090909 
L 884.628 588.487401 
L 885.546 587.883893 
L 887.382 587.280385 
L 888.3 586.676877 
L 889.218 585.771615 
L 890.136 584.262845 
L 891.054 582.150567 
L 891.972 580.641796 
L 892.89 579.736534 
L 893.808 580.340042 
L 895.644 582.754075 
L 896.562 583.357583 
L 897.48 583.357583 
L 898.398 584.262845 
L 899.316 586.375123 
L 900.234 589.090909 
L 901.152 589.090909 
L 902.07 584.564599 
L 902.988 560.424277 
L 903.906 512.747141 
L 904.824 439.11916 
L 907.578 152.754592 
L 908.496 88.782739 
L 909.414 64.642417 
L 910.332 84.558183 
L 911.25 144.607233 
L 912.168 231.814146 
L 914.004 423.126197 
L 914.922 498.262948 
L 915.84 549.862886 
L 916.758 578.227764 
L 917.676 589.090909 
L 918.594 589.090909 
L 919.512 588.789155 
L 920.43 587.280385 
L 921.348 586.978631 
L 922.266 587.582139 
L 923.184 587.883893 
L 924.102 587.582139 
L 925.02 586.676877 
L 925.938 586.073369 
L 926.856 586.073369 
L 929.61 588.789155 
L 931.446 588.789155 
L 932.364 588.185647 
L 933.282 588.185647 
L 936.036 589.090909 
L 937.872 588.487401 
L 938.79 587.883893 
L 939.708 587.582139 
L 941.544 587.582139 
L 942.462 588.185647 
L 944.298 588.789155 
L 945.216 588.487401 
L 947.052 587.280385 
L 948.888 586.676877 
L 949.806 586.978631 
L 950.724 586.978631 
L 951.642 586.676877 
L 952.56 586.073369 
L 953.478 585.771615 
L 954.396 586.073369 
L 956.232 589.090909 
L 957.15 589.090909 
L 958.068 583.055829 
L 958.986 565.855849 
L 959.904 534.171677 
L 960.822 486.192787 
L 962.658 358.249082 
L 963.576 295.785999 
L 964.494 249.315879 
L 965.412 228.494852 
L 966.33 237.849226 
L 967.248 276.171987 
L 968.166 335.61753 
L 970.002 471.708594 
L 970.92 526.326072 
L 971.838 563.140063 
L 972.756 583.357583 
L 973.674 589.090909 
L 974.592 589.090909 
L 975.51 588.185647 
L 976.428 586.978631 
L 978.264 587.582139 
L 979.182 587.582139 
L 980.1 585.771615 
L 981.936 581.245304 
L 982.854 580.340042 
L 983.772 581.245304 
L 985.608 585.469861 
L 986.526 586.676877 
L 987.444 586.676877 
L 988.362 586.375123 
L 989.28 586.978631 
L 990.198 589.090909 
L 991.116 589.090909 
L 992.034 588.487401 
L 992.952 575.813732 
L 993.87 546.241838 
L 994.788 496.754178 
L 995.706 429.161277 
L 997.542 276.775495 
L 998.46 219.140477 
L 999.378 191.077353 
L 1000.296 198.621203 
L 1001.214 240.263259 
L 1002.132 306.649144 
L 1003.968 459.034925 
L 1004.886 519.687484 
L 1005.804 560.726031 
L 1006.722 583.055829 
L 1007.64 589.090909 
L 1008.558 589.090909 
L 1009.476 588.789155 
L 1010.394 586.375123 
L 1011.312 585.469861 
L 1012.23 586.375123 
L 1013.148 589.090909 
L 1014.984 589.090909 
L 1015.902 577.624256 
L 1016.82 546.241838 
L 1017.738 491.020852 
L 1018.656 412.86656 
L 1020.492 225.175558 
L 1021.41 147.32302 
L 1022.328 102.663424 
L 1023.246 100.249392 
L 1024.164 141.589693 
L 1025.082 217.933461 
L 1025.082 217.933461 
" style="fill:none;opacity:0.7;stroke:#000000;stroke-linecap:square;stroke-width:1.5;"/>
   </g>
   <g id="line2d_16">
    <defs>
     <path d="M 0 3 
C 0.795609 3 1.55874 2.683901 2.12132 2.12132 
C 2.683901 1.55874 3 0.795609 3 0 
C 3 -0.795609 2.683901 -1.55874 2.12132 -2.12132 
C 1.55874 -2.683901 0.795609 -3 0 -3 
C -0.795609 -3 -1.55874 -2.683901 -2.12132 -2.12132 
C -2.683901 -1.55874 -3 -0.795609 -3 0 
C -3 0.795609 -2.683901 1.55874 -2.12132 2.12132 
C -1.55874 2.683901 -0.795609 3 0 3 
z
" id="m7cd9a46546" style="stroke:#000000;"/>
    </defs>
    <g clip-path="url(#p9e7c5649a6)">
     <use style="stroke:#000000;" x="112.59" xlink:href="#m7cd9a46546" y="438.213898"/>
     <use style="stroke:#000000;" x="147.474" xlink:href="#m7cd9a46546" y="438.213898"/>
     <use style="stroke:#000000;" x="295.272" xlink:href="#m7cd9a46546" y="438.213898"/>
     <use style="stroke:#000000;" x="354.942" xlink:href="#m7cd9a46546" y="438.213898"/>
     <use style="stroke:#000000;" x="378.81" xlink:href="#m7cd9a46546" y="438.213898"/>
     <use style="stroke:#000000;" x="408.186" xlink:href="#m7cd9a46546" y="438.213898"/>
     <use style="stroke:#000000;" x="455.004" xlink:href="#m7cd9a46546" y="438.213898"/>
     <use style="stroke:#000000;" x="471.528" xlink:href="#m7cd9a46546" y="438.213898"/>
     <use style="stroke:#000000;" x="543.132" xlink:href="#m7cd9a46546" y="438.213898"/>
     <use style="stroke:#000000;" x="674.406" xlink:href="#m7cd9a46546" y="438.213898"/>
     <use style="stroke:#000000;" x="708.372" xlink:href="#m7cd9a46546" y="438.213898"/>
     <use style="stroke:#000000;" x="783.648" xlink:href="#m7cd9a46546" y="438.213898"/>
     <use style="stroke:#000000;" x="817.614" xlink:href="#m7cd9a46546" y="438.213898"/>
     <use style="stroke:#000000;" x="910.332" xlink:href="#m7cd9a46546" y="438.213898"/>
     <use style="stroke:#000000;" x="966.33" xlink:href="#m7cd9a46546" y="438.213898"/>
     <use style="stroke:#000000;" x="1000.296" xlink:href="#m7cd9a46546" y="438.213898"/>
     <use style="stroke:#000000;" x="1023.246" xlink:href="#m7cd9a46546" y="438.213898"/>
     <use style="stroke:#000000;" x="1128.816" xlink:href="#m7cd9a46546" y="438.213898"/>
     <use style="stroke:#000000;" x="1271.106" xlink:href="#m7cd9a46546" y="438.213898"/>
     <use style="stroke:#000000;" x="1292.22" xlink:href="#m7cd9a46546" y="438.213898"/>
     <use style="stroke:#000000;" x="1314.252" xlink:href="#m7cd9a46546" y="438.213898"/>
     <use style="stroke:#000000;" x="1327.104" xlink:href="#m7cd9a46546" y="438.213898"/>
     <use style="stroke:#000000;" x="1390.446" xlink:href="#m7cd9a46546" y="438.213898"/>
     <use style="stroke:#000000;" x="1418.904" xlink:href="#m7cd9a46546" y="438.213898"/>
     <use style="stroke:#000000;" x="1445.526" xlink:href="#m7cd9a46546" y="438.213898"/>
     <use style="stroke:#000000;" x="1521.72" xlink:href="#m7cd9a46546" y="438.213898"/>
     <use style="stroke:#000000;" x="1567.62" xlink:href="#m7cd9a46546" y="438.213898"/>
     <use style="stroke:#000000;" x="1615.356" xlink:href="#m7cd9a46546" y="438.213898"/>
     <use style="stroke:#000000;" x="1773.252" xlink:href="#m7cd9a46546" y="438.213898"/>
     <use style="stroke:#000000;" x="1839.348" xlink:href="#m7cd9a46546" y="438.213898"/>
     <use style="stroke:#000000;" x="1927.476" xlink:href="#m7cd9a46546" y="438.213898"/>
     <use style="stroke:#000000;" x="2013.768" xlink:href="#m7cd9a46546" y="438.213898"/>
     <use style="stroke:#000000;" x="2026.62" xlink:href="#m7cd9a46546" y="438.213898"/>
     <use style="stroke:#000000;" x="2043.144" xlink:href="#m7cd9a46546" y="438.213898"/>
     <use style="stroke:#000000;" x="2058.75" xlink:href="#m7cd9a46546" y="438.213898"/>
     <use style="stroke:#000000;" x="2112.912" xlink:href="#m7cd9a46546" y="438.213898"/>
     <use style="stroke:#000000;" x="2136.78" xlink:href="#m7cd9a46546" y="438.213898"/>
     <use style="stroke:#000000;" x="2319.462" xlink:href="#m7cd9a46546" y="438.213898"/>
     <use style="stroke:#000000;" x="2335.986" xlink:href="#m7cd9a46546" y="438.213898"/>
     <use style="stroke:#000000;" x="2348.838" xlink:href="#m7cd9a46546" y="438.213898"/>
     <use style="stroke:#000000;" x="2358.936" xlink:href="#m7cd9a46546" y="438.213898"/>
     <use style="stroke:#000000;" x="2381.886" xlink:href="#m7cd9a46546" y="438.213898"/>
     <use style="stroke:#000000;" x="2409.426" xlink:href="#m7cd9a46546" y="438.213898"/>
     <use style="stroke:#000000;" x="2422.278" xlink:href="#m7cd9a46546" y="438.213898"/>
     <use style="stroke:#000000;" x="2460.834" xlink:href="#m7cd9a46546" y="438.213898"/>
     <use style="stroke:#000000;" x="2480.112" xlink:href="#m7cd9a46546" y="438.213898"/>
     <use style="stroke:#000000;" x="2504.898" xlink:href="#m7cd9a46546" y="438.213898"/>
     <use style="stroke:#000000;" x="2539.782" xlink:href="#m7cd9a46546" y="438.213898"/>
     <use style="stroke:#000000;" x="2570.994" xlink:href="#m7cd9a46546" y="438.213898"/>
     <use style="stroke:#000000;" x="2603.124" xlink:href="#m7cd9a46546" y="438.213898"/>
     <use style="stroke:#000000;" x="2634.336" xlink:href="#m7cd9a46546" y="438.213898"/>
     <use style="stroke:#000000;" x="2638.008" xlink:href="#m7cd9a46546" y="438.213898"/>
     <use style="stroke:#000000;" x="2667.384" xlink:href="#m7cd9a46546" y="438.213898"/>
     <use style="stroke:#000000;" x="2681.154" xlink:href="#m7cd9a46546" y="438.213898"/>
     <use style="stroke:#000000;" x="2694.006" xlink:href="#m7cd9a46546" y="438.213898"/>
     <use style="stroke:#000000;" x="2713.284" xlink:href="#m7cd9a46546" y="438.213898"/>
     <use style="stroke:#000000;" x="2724.3" xlink:href="#m7cd9a46546" y="438.213898"/>
     <use style="stroke:#000000;" x="2776.626" xlink:href="#m7cd9a46546" y="438.213898"/>
     <use style="stroke:#000000;" x="2888.622" xlink:href="#m7cd9a46546" y="438.213898"/>
     <use style="stroke:#000000;" x="2930.85" xlink:href="#m7cd9a46546" y="438.213898"/>
     <use style="stroke:#000000;" x="2984.094" xlink:href="#m7cd9a46546" y="438.213898"/>
     <use style="stroke:#000000;" x="2999.7" xlink:href="#m7cd9a46546" y="438.213898"/>
     <use style="stroke:#000000;" x="3016.224" xlink:href="#m7cd9a46546" y="438.213898"/>
     <use style="stroke:#000000;" x="3040.092" xlink:href="#m7cd9a46546" y="438.213898"/>
     <use style="stroke:#000000;" x="3082.32" xlink:href="#m7cd9a46546" y="438.213898"/>
     <use style="stroke:#000000;" x="3105.27" xlink:href="#m7cd9a46546" y="438.213898"/>
     <use style="stroke:#000000;" x="3180.546" xlink:href="#m7cd9a46546" y="438.213898"/>
     <use style="stroke:#000000;" x="3195.234" xlink:href="#m7cd9a46546" y="438.213898"/>
     <use style="stroke:#000000;" x="3321.918" xlink:href="#m7cd9a46546" y="438.213898"/>
     <use style="stroke:#000000;" x="3376.08" xlink:href="#m7cd9a46546" y="438.213898"/>
     <use style="stroke:#000000;" x="3528.468" xlink:href="#m7cd9a46546" y="438.213898"/>
     <use style="stroke:#000000;" x="3593.646" xlink:href="#m7cd9a46546" y="438.213898"/>
     <use style="stroke:#000000;" x="3594.564" xlink:href="#m7cd9a46546" y="438.213898"/>
     <use style="stroke:#000000;" x="3606.498" xlink:href="#m7cd9a46546" y="438.213898"/>
     <use style="stroke:#000000;" x="3617.514" xlink:href="#m7cd9a46546" y="438.213898"/>
     <use style="stroke:#000000;" x="3628.53" xlink:href="#m7cd9a46546" y="438.213898"/>
     <use style="stroke:#000000;" x="3681.774" xlink:href="#m7cd9a46546" y="438.213898"/>
     <use style="stroke:#000000;" x="3693.708" xlink:href="#m7cd9a46546" y="438.213898"/>
     <use style="stroke:#000000;" x="3749.706" xlink:href="#m7cd9a46546" y="438.213898"/>
     <use style="stroke:#000000;" x="3782.754" xlink:href="#m7cd9a46546" y="438.213898"/>
     <use style="stroke:#000000;" x="3891.996" xlink:href="#m7cd9a46546" y="438.213898"/>
     <use style="stroke:#000000;" x="3980.124" xlink:href="#m7cd9a46546" y="438.213898"/>
     <use style="stroke:#000000;" x="3992.058" xlink:href="#m7cd9a46546" y="438.213898"/>
     <use style="stroke:#000000;" x="4003.992" xlink:href="#m7cd9a46546" y="438.213898"/>
     <use style="stroke:#000000;" x="4014.09" xlink:href="#m7cd9a46546" y="438.213898"/>
     <use style="stroke:#000000;" x="4025.106" xlink:href="#m7cd9a46546" y="438.213898"/>
     <use style="stroke:#000000;" x="4199.526" xlink:href="#m7cd9a46546" y="438.213898"/>
     <use style="stroke:#000000;" x="4266.54" xlink:href="#m7cd9a46546" y="438.213898"/>
     <use style="stroke:#000000;" x="4387.716" xlink:href="#m7cd9a46546" y="438.213898"/>
     <use style="stroke:#000000;" x="4419.846" xlink:href="#m7cd9a46546" y="438.213898"/>
     <use style="stroke:#000000;" x="4441.878" xlink:href="#m7cd9a46546" y="438.213898"/>
     <use style="stroke:#000000;" x="4474.926" xlink:href="#m7cd9a46546" y="438.213898"/>
     <use style="stroke:#000000;" x="4487.778" xlink:href="#m7cd9a46546" y="438.213898"/>
     <use style="stroke:#000000;" x="4507.974" xlink:href="#m7cd9a46546" y="438.213898"/>
     <use style="stroke:#000000;" x="4530.924" xlink:href="#m7cd9a46546" y="438.213898"/>
     <use style="stroke:#000000;" x="4563.972" xlink:href="#m7cd9a46546" y="438.213898"/>
     <use style="stroke:#000000;" x="4575.906" xlink:href="#m7cd9a46546" y="438.213898"/>
     <use style="stroke:#000000;" x="4576.824" xlink:href="#m7cd9a46546" y="438.213898"/>
     <use style="stroke:#000000;" x="4593.348" xlink:href="#m7cd9a46546" y="438.213898"/>
     <use style="stroke:#000000;" x="4608.954" xlink:href="#m7cd9a46546" y="438.213898"/>
     <use style="stroke:#000000;" x="4630.986" xlink:href="#m7cd9a46546" y="438.213898"/>
     <use style="stroke:#000000;" x="4651.182" xlink:href="#m7cd9a46546" y="438.213898"/>
     <use style="stroke:#000000;" x="4673.214" xlink:href="#m7cd9a46546" y="438.213898"/>
     <use style="stroke:#000000;" x="4793.472" xlink:href="#m7cd9a46546" y="438.213898"/>
     <use style="stroke:#000000;" x="4837.536" xlink:href="#m7cd9a46546" y="438.213898"/>
     <use style="stroke:#000000;" x="4892.616" xlink:href="#m7cd9a46546" y="438.213898"/>
     <use style="stroke:#000000;" x="4925.664" xlink:href="#m7cd9a46546" y="438.213898"/>
     <use style="stroke:#000000;" x="4948.614" xlink:href="#m7cd9a46546" y="438.213898"/>
     <use style="stroke:#000000;" x="4979.826" xlink:href="#m7cd9a46546" y="438.213898"/>
     <use style="stroke:#000000;" x="5078.97" xlink:href="#m7cd9a46546" y="438.213898"/>
     <use style="stroke:#000000;" x="5101.002" xlink:href="#m7cd9a46546" y="438.213898"/>
     <use style="stroke:#000000;" x="5210.244" xlink:href="#m7cd9a46546" y="438.213898"/>
     <use style="stroke:#000000;" x="5234.112" xlink:href="#m7cd9a46546" y="438.213898"/>
     <use style="stroke:#000000;" x="5266.242" xlink:href="#m7cd9a46546" y="438.213898"/>
     <use style="stroke:#000000;" x="5279.094" xlink:href="#m7cd9a46546" y="438.213898"/>
     <use style="stroke:#000000;" x="5334.174" xlink:href="#m7cd9a46546" y="438.213898"/>
     <use style="stroke:#000000;" x="5359.878" xlink:href="#m7cd9a46546" y="438.213898"/>
     <use style="stroke:#000000;" x="5378.238" xlink:href="#m7cd9a46546" y="438.213898"/>
     <use style="stroke:#000000;" x="5400.27" xlink:href="#m7cd9a46546" y="438.213898"/>
     <use style="stroke:#000000;" x="5596.722" xlink:href="#m7cd9a46546" y="438.213898"/>
     <use style="stroke:#000000;" x="5630.688" xlink:href="#m7cd9a46546" y="438.213898"/>
     <use style="stroke:#000000;" x="5652.72" xlink:href="#m7cd9a46546" y="438.213898"/>
     <use style="stroke:#000000;" x="5696.784" xlink:href="#m7cd9a46546" y="438.213898"/>
     <use style="stroke:#000000;" x="5870.286" xlink:href="#m7cd9a46546" y="438.213898"/>
     <use style="stroke:#000000;" x="5892.318" xlink:href="#m7cd9a46546" y="438.213898"/>
     <use style="stroke:#000000;" x="5979.528" xlink:href="#m7cd9a46546" y="438.213898"/>
     <use style="stroke:#000000;" x="6024.51" xlink:href="#m7cd9a46546" y="438.213898"/>
     <use style="stroke:#000000;" x="6069.492" xlink:href="#m7cd9a46546" y="438.213898"/>
     <use style="stroke:#000000;" x="6133.752" xlink:href="#m7cd9a46546" y="438.213898"/>
     <use style="stroke:#000000;" x="6146.604" xlink:href="#m7cd9a46546" y="438.213898"/>
     <use style="stroke:#000000;" x="6244.83" xlink:href="#m7cd9a46546" y="438.213898"/>
     <use style="stroke:#000000;" x="6257.682" xlink:href="#m7cd9a46546" y="438.213898"/>
     <use style="stroke:#000000;" x="6258.6" xlink:href="#m7cd9a46546" y="438.213898"/>
     <use style="stroke:#000000;" x="6376.104" xlink:href="#m7cd9a46546" y="438.213898"/>
     <use style="stroke:#000000;" x="6443.118" xlink:href="#m7cd9a46546" y="438.213898"/>
     <use style="stroke:#000000;" x="6542.262" xlink:href="#m7cd9a46546" y="438.213898"/>
     <use style="stroke:#000000;" x="6543.18" xlink:href="#m7cd9a46546" y="438.213898"/>
     <use style="stroke:#000000;" x="6652.422" xlink:href="#m7cd9a46546" y="438.213898"/>
     <use style="stroke:#000000;" x="6675.372" xlink:href="#m7cd9a46546" y="438.213898"/>
     <use style="stroke:#000000;" x="6730.452" xlink:href="#m7cd9a46546" y="438.213898"/>
     <use style="stroke:#000000;" x="6759.828" xlink:href="#m7cd9a46546" y="438.213898"/>
     <use style="stroke:#000000;" x="6770.844" xlink:href="#m7cd9a46546" y="438.213898"/>
     <use style="stroke:#000000;" x="6836.022" xlink:href="#m7cd9a46546" y="438.213898"/>
     <use style="stroke:#000000;" x="6961.788" xlink:href="#m7cd9a46546" y="438.213898"/>
     <use style="stroke:#000000;" x="7116.012" xlink:href="#m7cd9a46546" y="438.213898"/>
     <use style="stroke:#000000;" x="7162.83" xlink:href="#m7cd9a46546" y="438.213898"/>
     <use style="stroke:#000000;" x="7205.058" xlink:href="#m7cd9a46546" y="438.213898"/>
     <use style="stroke:#000000;" x="7228.008" xlink:href="#m7cd9a46546" y="438.213898"/>
     <use style="stroke:#000000;" x="7263.81" xlink:href="#m7cd9a46546" y="438.213898"/>
     <use style="stroke:#000000;" x="7281.252" xlink:href="#m7cd9a46546" y="438.213898"/>
     <use style="stroke:#000000;" x="7282.17" xlink:href="#m7cd9a46546" y="438.213898"/>
     <use style="stroke:#000000;" x="7316.136" xlink:href="#m7cd9a46546" y="438.213898"/>
     <use style="stroke:#000000;" x="7348.266" xlink:href="#m7cd9a46546" y="438.213898"/>
     <use style="stroke:#000000;" x="7393.248" xlink:href="#m7cd9a46546" y="438.213898"/>
     <use style="stroke:#000000;" x="7428.132" xlink:href="#m7cd9a46546" y="438.213898"/>
     <use style="stroke:#000000;" x="7463.016" xlink:href="#m7cd9a46546" y="438.213898"/>
     <use style="stroke:#000000;" x="7583.274" xlink:href="#m7cd9a46546" y="438.213898"/>
     <use style="stroke:#000000;" x="7615.404" xlink:href="#m7cd9a46546" y="438.213898"/>
     <use style="stroke:#000000;" x="7628.256" xlink:href="#m7cd9a46546" y="438.213898"/>
     <use style="stroke:#000000;" x="7640.19" xlink:href="#m7cd9a46546" y="438.213898"/>
     <use style="stroke:#000000;" x="7663.14" xlink:href="#m7cd9a46546" y="438.213898"/>
     <use style="stroke:#000000;" x="7686.09" xlink:href="#m7cd9a46546" y="438.213898"/>
     <use style="stroke:#000000;" x="7706.286" xlink:href="#m7cd9a46546" y="438.213898"/>
     <use style="stroke:#000000;" x="7794.414" xlink:href="#m7cd9a46546" y="438.213898"/>
     <use style="stroke:#000000;" x="7840.314" xlink:href="#m7cd9a46546" y="438.213898"/>
     <use style="stroke:#000000;" x="8039.52" xlink:href="#m7cd9a46546" y="438.213898"/>
     <use style="stroke:#000000;" x="8068.896" xlink:href="#m7cd9a46546" y="438.213898"/>
     <use style="stroke:#000000;" x="8095.518" xlink:href="#m7cd9a46546" y="438.213898"/>
     <use style="stroke:#000000;" x="8117.55" xlink:href="#m7cd9a46546" y="438.213898"/>
     <use style="stroke:#000000;" x="8168.958" xlink:href="#m7cd9a46546" y="438.213898"/>
     <use style="stroke:#000000;" x="8206.596" xlink:href="#m7cd9a46546" y="438.213898"/>
     <use style="stroke:#000000;" x="8306.658" xlink:href="#m7cd9a46546" y="438.213898"/>
     <use style="stroke:#000000;" x="8354.394" xlink:href="#m7cd9a46546" y="438.213898"/>
     <use style="stroke:#000000;" x="8404.884" xlink:href="#m7cd9a46546" y="438.213898"/>
     <use style="stroke:#000000;" x="8418.654" xlink:href="#m7cd9a46546" y="438.213898"/>
     <use style="stroke:#000000;" x="8450.784" xlink:href="#m7cd9a46546" y="438.213898"/>
     <use style="stroke:#000000;" x="8474.652" xlink:href="#m7cd9a46546" y="438.213898"/>
     <use style="stroke:#000000;" x="8485.668" xlink:href="#m7cd9a46546" y="438.213898"/>
     <use style="stroke:#000000;" x="8486.586" xlink:href="#m7cd9a46546" y="438.213898"/>
     <use style="stroke:#000000;" x="8504.028" xlink:href="#m7cd9a46546" y="438.213898"/>
     <use style="stroke:#000000;" x="8519.634" xlink:href="#m7cd9a46546" y="438.213898"/>
     <use style="stroke:#000000;" x="8532.486" xlink:href="#m7cd9a46546" y="438.213898"/>
     <use style="stroke:#000000;" x="8556.354" xlink:href="#m7cd9a46546" y="438.213898"/>
     <use style="stroke:#000000;" x="8588.484" xlink:href="#m7cd9a46546" y="438.213898"/>
     <use style="stroke:#000000;" x="8601.336" xlink:href="#m7cd9a46546" y="438.213898"/>
     <use style="stroke:#000000;" x="8624.286" xlink:href="#m7cd9a46546" y="438.213898"/>
     <use style="stroke:#000000;" x="8669.268" xlink:href="#m7cd9a46546" y="438.213898"/>
     <use style="stroke:#000000;" x="8713.332" xlink:href="#m7cd9a46546" y="438.213898"/>
     <use style="stroke:#000000;" x="8727.102" xlink:href="#m7cd9a46546" y="438.213898"/>
     <use style="stroke:#000000;" x="8739.036" xlink:href="#m7cd9a46546" y="438.213898"/>
     <use style="stroke:#000000;" x="8749.134" xlink:href="#m7cd9a46546" y="438.213898"/>
     <use style="stroke:#000000;" x="8750.052" xlink:href="#m7cd9a46546" y="438.213898"/>
     <use style="stroke:#000000;" x="8794.116" xlink:href="#m7cd9a46546" y="438.213898"/>
     <use style="stroke:#000000;" x="8806.05" xlink:href="#m7cd9a46546" y="438.213898"/>
     <use style="stroke:#000000;" x="8817.984" xlink:href="#m7cd9a46546" y="438.213898"/>
     <use style="stroke:#000000;" x="8872.146" xlink:href="#m7cd9a46546" y="438.213898"/>
     <use style="stroke:#000000;" x="8983.224" xlink:href="#m7cd9a46546" y="438.213898"/>
     <use style="stroke:#000000;" x="8998.83" xlink:href="#m7cd9a46546" y="438.213898"/>
     <use style="stroke:#000000;" x="9018.108" xlink:href="#m7cd9a46546" y="438.213898"/>
     <use style="stroke:#000000;" x="9030.96" xlink:href="#m7cd9a46546" y="438.213898"/>
     <use style="stroke:#000000;" x="9055.746" xlink:href="#m7cd9a46546" y="438.213898"/>
     <use style="stroke:#000000;" x="9153.972" xlink:href="#m7cd9a46546" y="438.213898"/>
     <use style="stroke:#000000;" x="9168.66" xlink:href="#m7cd9a46546" y="438.213898"/>
     <use style="stroke:#000000;" x="9191.61" xlink:href="#m7cd9a46546" y="438.213898"/>
     <use style="stroke:#000000;" x="9215.478" xlink:href="#m7cd9a46546" y="438.213898"/>
     <use style="stroke:#000000;" x="9248.526" xlink:href="#m7cd9a46546" y="438.213898"/>
     <use style="stroke:#000000;" x="9271.476" xlink:href="#m7cd9a46546" y="438.213898"/>
     <use style="stroke:#000000;" x="9272.394" xlink:href="#m7cd9a46546" y="438.213898"/>
     <use style="stroke:#000000;" x="9373.374" xlink:href="#m7cd9a46546" y="438.213898"/>
     <use style="stroke:#000000;" x="9398.16" xlink:href="#m7cd9a46546" y="438.213898"/>
     <use style="stroke:#000000;" x="9408.258" xlink:href="#m7cd9a46546" y="438.213898"/>
     <use style="stroke:#000000;" x="9420.192" xlink:href="#m7cd9a46546" y="438.213898"/>
     <use style="stroke:#000000;" x="9442.224" xlink:href="#m7cd9a46546" y="438.213898"/>
     <use style="stroke:#000000;" x="9443.142" xlink:href="#m7cd9a46546" y="438.213898"/>
     <use style="stroke:#000000;" x="9467.01" xlink:href="#m7cd9a46546" y="438.213898"/>
     <use style="stroke:#000000;" x="9545.04" xlink:href="#m7cd9a46546" y="438.213898"/>
     <use style="stroke:#000000;" x="9569.826" xlink:href="#m7cd9a46546" y="438.213898"/>
     <use style="stroke:#000000;" x="9583.596" xlink:href="#m7cd9a46546" y="438.213898"/>
     <use style="stroke:#000000;" x="9672.642" xlink:href="#m7cd9a46546" y="438.213898"/>
     <use style="stroke:#000000;" x="9704.772" xlink:href="#m7cd9a46546" y="438.213898"/>
     <use style="stroke:#000000;" x="9706.608" xlink:href="#m7cd9a46546" y="438.213898"/>
     <use style="stroke:#000000;" x="9716.706" xlink:href="#m7cd9a46546" y="438.213898"/>
     <use style="stroke:#000000;" x="9735.066" xlink:href="#m7cd9a46546" y="438.213898"/>
     <use style="stroke:#000000;" x="9780.048" xlink:href="#m7cd9a46546" y="438.213898"/>
     <use style="stroke:#000000;" x="9782.802" xlink:href="#m7cd9a46546" y="438.213898"/>
     <use style="stroke:#000000;" x="9812.178" xlink:href="#m7cd9a46546" y="438.213898"/>
     <use style="stroke:#000000;" x="9837.882" xlink:href="#m7cd9a46546" y="438.213898"/>
     <use style="stroke:#000000;" x="9849.816" xlink:href="#m7cd9a46546" y="438.213898"/>
     <use style="stroke:#000000;" x="9919.584" xlink:href="#m7cd9a46546" y="438.213898"/>
     <use style="stroke:#000000;" x="9930.6" xlink:href="#m7cd9a46546" y="438.213898"/>
     <use style="stroke:#000000;" x="9944.37" xlink:href="#m7cd9a46546" y="438.213898"/>
     <use style="stroke:#000000;" x="9967.32" xlink:href="#m7cd9a46546" y="438.213898"/>
     <use style="stroke:#000000;" x="9991.188" xlink:href="#m7cd9a46546" y="438.213898"/>
     <use style="stroke:#000000;" x="10032.498" xlink:href="#m7cd9a46546" y="438.213898"/>
     <use style="stroke:#000000;" x="10048.104" xlink:href="#m7cd9a46546" y="438.213898"/>
     <use style="stroke:#000000;" x="10143.576" xlink:href="#m7cd9a46546" y="438.213898"/>
     <use style="stroke:#000000;" x="10151.838" xlink:href="#m7cd9a46546" y="438.213898"/>
     <use style="stroke:#000000;" x="10152.756" xlink:href="#m7cd9a46546" y="438.213898"/>
     <use style="stroke:#000000;" x="10181.214" xlink:href="#m7cd9a46546" y="438.213898"/>
     <use style="stroke:#000000;" x="10190.394" xlink:href="#m7cd9a46546" y="438.213898"/>
     <use style="stroke:#000000;" x="10199.574" xlink:href="#m7cd9a46546" y="438.213898"/>
     <use style="stroke:#000000;" x="10200.492" xlink:href="#m7cd9a46546" y="438.213898"/>
     <use style="stroke:#000000;" x="10241.802" xlink:href="#m7cd9a46546" y="438.213898"/>
     <use style="stroke:#000000;" x="10320.75" xlink:href="#m7cd9a46546" y="438.213898"/>
     <use style="stroke:#000000;" x="10350.126" xlink:href="#m7cd9a46546" y="438.213898"/>
     <use style="stroke:#000000;" x="10380.42" xlink:href="#m7cd9a46546" y="438.213898"/>
     <use style="stroke:#000000;" x="10462.122" xlink:href="#m7cd9a46546" y="438.213898"/>
     <use style="stroke:#000000;" x="10472.22" xlink:href="#m7cd9a46546" y="438.213898"/>
     <use style="stroke:#000000;" x="10490.58" xlink:href="#m7cd9a46546" y="438.213898"/>
     <use style="stroke:#000000;" x="10513.53" xlink:href="#m7cd9a46546" y="438.213898"/>
     <use style="stroke:#000000;" x="10523.628" xlink:href="#m7cd9a46546" y="438.213898"/>
     <use style="stroke:#000000;" x="10591.56" xlink:href="#m7cd9a46546" y="438.213898"/>
     <use style="stroke:#000000;" x="10601.658" xlink:href="#m7cd9a46546" y="438.213898"/>
     <use style="stroke:#000000;" x="10606.248" xlink:href="#m7cd9a46546" y="438.213898"/>
     <use style="stroke:#000000;" x="10610.838" xlink:href="#m7cd9a46546" y="438.213898"/>
     <use style="stroke:#000000;" x="10644.804" xlink:href="#m7cd9a46546" y="438.213898"/>
     <use style="stroke:#000000;" x="10645.722" xlink:href="#m7cd9a46546" y="438.213898"/>
     <use style="stroke:#000000;" x="10654.902" xlink:href="#m7cd9a46546" y="438.213898"/>
     <use style="stroke:#000000;" x="10691.622" xlink:href="#m7cd9a46546" y="438.213898"/>
     <use style="stroke:#000000;" x="10694.376" xlink:href="#m7cd9a46546" y="438.213898"/>
     <use style="stroke:#000000;" x="10700.802" xlink:href="#m7cd9a46546" y="438.213898"/>
     <use style="stroke:#000000;" x="10732.014" xlink:href="#m7cd9a46546" y="438.213898"/>
     <use style="stroke:#000000;" x="10733.85" xlink:href="#m7cd9a46546" y="438.213898"/>
     <use style="stroke:#000000;" x="10765.98" xlink:href="#m7cd9a46546" y="438.213898"/>
     <use style="stroke:#000000;" x="10779.75" xlink:href="#m7cd9a46546" y="438.213898"/>
     <use style="stroke:#000000;" x="10796.274" xlink:href="#m7cd9a46546" y="438.213898"/>
     <use style="stroke:#000000;" x="10816.47" xlink:href="#m7cd9a46546" y="438.213898"/>
     <use style="stroke:#000000;" x="10839.42" xlink:href="#m7cd9a46546" y="438.213898"/>
     <use style="stroke:#000000;" x="10840.338" xlink:href="#m7cd9a46546" y="438.213898"/>
     <use style="stroke:#000000;" x="10872.468" xlink:href="#m7cd9a46546" y="438.213898"/>
     <use style="stroke:#000000;" x="10880.73" xlink:href="#m7cd9a46546" y="438.213898"/>
     <use style="stroke:#000000;" x="10881.648" xlink:href="#m7cd9a46546" y="438.213898"/>
     <use style="stroke:#000000;" x="10903.68" xlink:href="#m7cd9a46546" y="438.213898"/>
     <use style="stroke:#000000;" x="10924.794" xlink:href="#m7cd9a46546" y="438.213898"/>
     <use style="stroke:#000000;" x="10950.498" xlink:href="#m7cd9a46546" y="438.213898"/>
     <use style="stroke:#000000;" x="10981.71" xlink:href="#m7cd9a46546" y="438.213898"/>
     <use style="stroke:#000000;" x="10996.398" xlink:href="#m7cd9a46546" y="438.213898"/>
     <use style="stroke:#000000;" x="11011.086" xlink:href="#m7cd9a46546" y="438.213898"/>
     <use style="stroke:#000000;" x="11039.544" xlink:href="#m7cd9a46546" y="438.213898"/>
     <use style="stroke:#000000;" x="11080.854" xlink:href="#m7cd9a46546" y="438.213898"/>
     <use style="stroke:#000000;" x="11087.28" xlink:href="#m7cd9a46546" y="438.213898"/>
     <use style="stroke:#000000;" x="11092.788" xlink:href="#m7cd9a46546" y="438.213898"/>
     <use style="stroke:#000000;" x="11148.786" xlink:href="#m7cd9a46546" y="438.213898"/>
     <use style="stroke:#000000;" x="11165.31" xlink:href="#m7cd9a46546" y="438.213898"/>
     <use style="stroke:#000000;" x="11182.752" xlink:href="#m7cd9a46546" y="438.213898"/>
     <use style="stroke:#000000;" x="11191.014" xlink:href="#m7cd9a46546" y="438.213898"/>
     <use style="stroke:#000000;" x="11191.932" xlink:href="#m7cd9a46546" y="438.213898"/>
     <use style="stroke:#000000;" x="11215.8" xlink:href="#m7cd9a46546" y="438.213898"/>
     <use style="stroke:#000000;" x="11224.062" xlink:href="#m7cd9a46546" y="438.213898"/>
     <use style="stroke:#000000;" x="11226.816" xlink:href="#m7cd9a46546" y="438.213898"/>
     <use style="stroke:#000000;" x="11234.16" xlink:href="#m7cd9a46546" y="438.213898"/>
     <use style="stroke:#000000;" x="11249.766" xlink:href="#m7cd9a46546" y="438.213898"/>
     <use style="stroke:#000000;" x="11258.946" xlink:href="#m7cd9a46546" y="438.213898"/>
     <use style="stroke:#000000;" x="11290.158" xlink:href="#m7cd9a46546" y="438.213898"/>
     <use style="stroke:#000000;" x="11291.076" xlink:href="#m7cd9a46546" y="438.213898"/>
     <use style="stroke:#000000;" x="11315.862" xlink:href="#m7cd9a46546" y="438.213898"/>
     <use style="stroke:#000000;" x="11330.55" xlink:href="#m7cd9a46546" y="438.213898"/>
     <use style="stroke:#000000;" x="11357.172" xlink:href="#m7cd9a46546" y="438.213898"/>
     <use style="stroke:#000000;" x="11366.352" xlink:href="#m7cd9a46546" y="438.213898"/>
     <use style="stroke:#000000;" x="11368.188" xlink:href="#m7cd9a46546" y="438.213898"/>
     <use style="stroke:#000000;" x="11369.106" xlink:href="#m7cd9a46546" y="438.213898"/>
     <use style="stroke:#000000;" x="11447.136" xlink:href="#m7cd9a46546" y="438.213898"/>
     <use style="stroke:#000000;" x="11458.152" xlink:href="#m7cd9a46546" y="438.213898"/>
     <use style="stroke:#000000;" x="11459.07" xlink:href="#m7cd9a46546" y="438.213898"/>
     <use style="stroke:#000000;" x="11573.82" xlink:href="#m7cd9a46546" y="438.213898"/>
     <use style="stroke:#000000;" x="11598.606" xlink:href="#m7cd9a46546" y="438.213898"/>
     <use style="stroke:#000000;" x="11624.31" xlink:href="#m7cd9a46546" y="438.213898"/>
     <use style="stroke:#000000;" x="11636.244" xlink:href="#m7cd9a46546" y="438.213898"/>
     <use style="stroke:#000000;" x="11638.08" xlink:href="#m7cd9a46546" y="438.213898"/>
     <use style="stroke:#000000;" x="11660.112" xlink:href="#m7cd9a46546" y="438.213898"/>
     <use style="stroke:#000000;" x="11688.57" xlink:href="#m7cd9a46546" y="438.213898"/>
     <use style="stroke:#000000;" x="11696.832" xlink:href="#m7cd9a46546" y="438.213898"/>
     <use style="stroke:#000000;" x="11720.7" xlink:href="#m7cd9a46546" y="438.213898"/>
     <use style="stroke:#000000;" x="11724.372" xlink:href="#m7cd9a46546" y="438.213898"/>
     <use style="stroke:#000000;" x="11757.42" xlink:href="#m7cd9a46546" y="438.213898"/>
     <use style="stroke:#000000;" x="11784.042" xlink:href="#m7cd9a46546" y="438.213898"/>
     <use style="stroke:#000000;" x="11795.976" xlink:href="#m7cd9a46546" y="438.213898"/>
     <use style="stroke:#000000;" x="11829.024" xlink:href="#m7cd9a46546" y="438.213898"/>
     <use style="stroke:#000000;" x="11860.236" xlink:href="#m7cd9a46546" y="438.213898"/>
     <use style="stroke:#000000;" x="11874.924" xlink:href="#m7cd9a46546" y="438.213898"/>
     <use style="stroke:#000000;" x="11895.12" xlink:href="#m7cd9a46546" y="438.213898"/>
     <use style="stroke:#000000;" x="11908.89" xlink:href="#m7cd9a46546" y="438.213898"/>
     <use style="stroke:#000000;" x="11990.592" xlink:href="#m7cd9a46546" y="438.213898"/>
     <use style="stroke:#000000;" x="11997.936" xlink:href="#m7cd9a46546" y="438.213898"/>
     <use style="stroke:#000000;" x="12001.608" xlink:href="#m7cd9a46546" y="438.213898"/>
     <use style="stroke:#000000;" x="12044.754" xlink:href="#m7cd9a46546" y="438.213898"/>
     <use style="stroke:#000000;" x="12055.77" xlink:href="#m7cd9a46546" y="438.213898"/>
     <use style="stroke:#000000;" x="12066.786" xlink:href="#m7cd9a46546" y="438.213898"/>
     <use style="stroke:#000000;" x="12081.474" xlink:href="#m7cd9a46546" y="438.213898"/>
     <use style="stroke:#000000;" x="12104.424" xlink:href="#m7cd9a46546" y="438.213898"/>
     <use style="stroke:#000000;" x="12107.178" xlink:href="#m7cd9a46546" y="438.213898"/>
     <use style="stroke:#000000;" x="12130.128" xlink:href="#m7cd9a46546" y="438.213898"/>
     <use style="stroke:#000000;" x="12136.554" xlink:href="#m7cd9a46546" y="438.213898"/>
     <use style="stroke:#000000;" x="12152.16" xlink:href="#m7cd9a46546" y="438.213898"/>
     <use style="stroke:#000000;" x="12178.782" xlink:href="#m7cd9a46546" y="438.213898"/>
     <use style="stroke:#000000;" x="12209.076" xlink:href="#m7cd9a46546" y="438.213898"/>
     <use style="stroke:#000000;" x="12273.336" xlink:href="#m7cd9a46546" y="438.213898"/>
     <use style="stroke:#000000;" x="12281.598" xlink:href="#m7cd9a46546" y="438.213898"/>
     <use style="stroke:#000000;" x="12283.434" xlink:href="#m7cd9a46546" y="438.213898"/>
     <use style="stroke:#000000;" x="12315.564" xlink:href="#m7cd9a46546" y="438.213898"/>
     <use style="stroke:#000000;" x="12377.988" xlink:href="#m7cd9a46546" y="438.213898"/>
     <use style="stroke:#000000;" x="12411.954" xlink:href="#m7cd9a46546" y="438.213898"/>
     <use style="stroke:#000000;" x="12451.428" xlink:href="#m7cd9a46546" y="438.213898"/>
     <use style="stroke:#000000;" x="12467.034" xlink:href="#m7cd9a46546" y="438.213898"/>
     <use style="stroke:#000000;" x="12481.722" xlink:href="#m7cd9a46546" y="438.213898"/>
     <use style="stroke:#000000;" x="12491.82" xlink:href="#m7cd9a46546" y="438.213898"/>
     <use style="stroke:#000000;" x="12507.426" xlink:href="#m7cd9a46546" y="438.213898"/>
     <use style="stroke:#000000;" x="12513.852" xlink:href="#m7cd9a46546" y="438.213898"/>
     <use style="stroke:#000000;" x="12522.114" xlink:href="#m7cd9a46546" y="438.213898"/>
     <use style="stroke:#000000;" x="12523.95" xlink:href="#m7cd9a46546" y="438.213898"/>
     <use style="stroke:#000000;" x="12534.966" xlink:href="#m7cd9a46546" y="438.213898"/>
     <use style="stroke:#000000;" x="12546.9" xlink:href="#m7cd9a46546" y="438.213898"/>
     <use style="stroke:#000000;" x="12568.932" xlink:href="#m7cd9a46546" y="438.213898"/>
     <use style="stroke:#000000;" x="12642.372" xlink:href="#m7cd9a46546" y="438.213898"/>
     <use style="stroke:#000000;" x="12659.814" xlink:href="#m7cd9a46546" y="438.213898"/>
     <use style="stroke:#000000;" x="12668.994" xlink:href="#m7cd9a46546" y="438.213898"/>
     <use style="stroke:#000000;" x="12681.846" xlink:href="#m7cd9a46546" y="438.213898"/>
     <use style="stroke:#000000;" x="12691.944" xlink:href="#m7cd9a46546" y="438.213898"/>
     <use style="stroke:#000000;" x="12700.206" xlink:href="#m7cd9a46546" y="438.213898"/>
     <use style="stroke:#000000;" x="12714.894" xlink:href="#m7cd9a46546" y="438.213898"/>
     <use style="stroke:#000000;" x="12715.812" xlink:href="#m7cd9a46546" y="438.213898"/>
     <use style="stroke:#000000;" x="12733.254" xlink:href="#m7cd9a46546" y="438.213898"/>
     <use style="stroke:#000000;" x="12750.696" xlink:href="#m7cd9a46546" y="438.213898"/>
     <use style="stroke:#000000;" x="12775.482" xlink:href="#m7cd9a46546" y="438.213898"/>
     <use style="stroke:#000000;" x="12790.17" xlink:href="#m7cd9a46546" y="438.213898"/>
     <use style="stroke:#000000;" x="12815.874" xlink:href="#m7cd9a46546" y="438.213898"/>
     <use style="stroke:#000000;" x="12850.758" xlink:href="#m7cd9a46546" y="438.213898"/>
     <use style="stroke:#000000;" x="12865.446" xlink:href="#m7cd9a46546" y="438.213898"/>
     <use style="stroke:#000000;" x="12895.74" xlink:href="#m7cd9a46546" y="438.213898"/>
     <use style="stroke:#000000;" x="12907.674" xlink:href="#m7cd9a46546" y="438.213898"/>
     <use style="stroke:#000000;" x="12925.116" xlink:href="#m7cd9a46546" y="438.213898"/>
     <use style="stroke:#000000;" x="12933.378" xlink:href="#m7cd9a46546" y="438.213898"/>
     <use style="stroke:#000000;" x="12960.918" xlink:href="#m7cd9a46546" y="438.213898"/>
     <use style="stroke:#000000;" x="12972.852" xlink:href="#m7cd9a46546" y="438.213898"/>
     <use style="stroke:#000000;" x="12982.032" xlink:href="#m7cd9a46546" y="438.213898"/>
     <use style="stroke:#000000;" x="12992.13" xlink:href="#m7cd9a46546" y="438.213898"/>
     <use style="stroke:#000000;" x="13005.9" xlink:href="#m7cd9a46546" y="438.213898"/>
     <use style="stroke:#000000;" x="13020.588" xlink:href="#m7cd9a46546" y="438.213898"/>
     <use style="stroke:#000000;" x="13086.684" xlink:href="#m7cd9a46546" y="438.213898"/>
     <use style="stroke:#000000;" x="13118.814" xlink:href="#m7cd9a46546" y="438.213898"/>
     <use style="stroke:#000000;" x="13127.994" xlink:href="#m7cd9a46546" y="438.213898"/>
     <use style="stroke:#000000;" x="13138.092" xlink:href="#m7cd9a46546" y="438.213898"/>
     <use style="stroke:#000000;" x="13146.354" xlink:href="#m7cd9a46546" y="438.213898"/>
     <use style="stroke:#000000;" x="13157.37" xlink:href="#m7cd9a46546" y="438.213898"/>
     <use style="stroke:#000000;" x="13179.402" xlink:href="#m7cd9a46546" y="438.213898"/>
     <use style="stroke:#000000;" x="13188.582" xlink:href="#m7cd9a46546" y="438.213898"/>
     <use style="stroke:#000000;" x="13206.024" xlink:href="#m7cd9a46546" y="438.213898"/>
     <use style="stroke:#000000;" x="13221.63" xlink:href="#m7cd9a46546" y="438.213898"/>
     <use style="stroke:#000000;" x="13231.728" xlink:href="#m7cd9a46546" y="438.213898"/>
     <use style="stroke:#000000;" x="13259.268" xlink:href="#m7cd9a46546" y="438.213898"/>
     <use style="stroke:#000000;" x="13270.284" xlink:href="#m7cd9a46546" y="438.213898"/>
     <use style="stroke:#000000;" x="13283.136" xlink:href="#m7cd9a46546" y="438.213898"/>
     <use style="stroke:#000000;" x="13315.266" xlink:href="#m7cd9a46546" y="438.213898"/>
     <use style="stroke:#000000;" x="13338.216" xlink:href="#m7cd9a46546" y="438.213898"/>
     <use style="stroke:#000000;" x="13351.986" xlink:href="#m7cd9a46546" y="438.213898"/>
     <use style="stroke:#000000;" x="13379.526" xlink:href="#m7cd9a46546" y="438.213898"/>
     <use style="stroke:#000000;" x="13392.378" xlink:href="#m7cd9a46546" y="438.213898"/>
     <use style="stroke:#000000;" x="13441.95" xlink:href="#m7cd9a46546" y="438.213898"/>
     <use style="stroke:#000000;" x="13523.652" xlink:href="#m7cd9a46546" y="438.213898"/>
     <use style="stroke:#000000;" x="13544.766" xlink:href="#m7cd9a46546" y="438.213898"/>
     <use style="stroke:#000000;" x="13554.864" xlink:href="#m7cd9a46546" y="438.213898"/>
     <use style="stroke:#000000;" x="13566.798" xlink:href="#m7cd9a46546" y="438.213898"/>
     <use style="stroke:#000000;" x="13581.486" xlink:href="#m7cd9a46546" y="438.213898"/>
     <use style="stroke:#000000;" x="13591.584" xlink:href="#m7cd9a46546" y="438.213898"/>
     <use style="stroke:#000000;" x="13603.518" xlink:href="#m7cd9a46546" y="438.213898"/>
     <use style="stroke:#000000;" x="13624.632" xlink:href="#m7cd9a46546" y="438.213898"/>
     <use style="stroke:#000000;" x="13640.238" xlink:href="#m7cd9a46546" y="438.213898"/>
     <use style="stroke:#000000;" x="13679.712" xlink:href="#m7cd9a46546" y="438.213898"/>
     <use style="stroke:#000000;" x="13681.548" xlink:href="#m7cd9a46546" y="438.213898"/>
     <use style="stroke:#000000;" x="13688.892" xlink:href="#m7cd9a46546" y="438.213898"/>
     <use style="stroke:#000000;" x="13736.628" xlink:href="#m7cd9a46546" y="438.213898"/>
     <use style="stroke:#000000;" x="13752.234" xlink:href="#m7cd9a46546" y="438.213898"/>
     <use style="stroke:#000000;" x="13769.676" xlink:href="#m7cd9a46546" y="438.213898"/>
     <use style="stroke:#000000;" x="13784.364" xlink:href="#m7cd9a46546" y="438.213898"/>
     <use style="stroke:#000000;" x="13798.134" xlink:href="#m7cd9a46546" y="438.213898"/>
     <use style="stroke:#000000;" x="13810.986" xlink:href="#m7cd9a46546" y="438.213898"/>
     <use style="stroke:#000000;" x="13826.592" xlink:href="#m7cd9a46546" y="438.213898"/>
     <use style="stroke:#000000;" x="13844.952" xlink:href="#m7cd9a46546" y="438.213898"/>
     <use style="stroke:#000000;" x="13855.05" xlink:href="#m7cd9a46546" y="438.213898"/>
     <use style="stroke:#000000;" x="13864.23" xlink:href="#m7cd9a46546" y="438.213898"/>
     <use style="stroke:#000000;" x="13877.082" xlink:href="#m7cd9a46546" y="438.213898"/>
     <use style="stroke:#000000;" x="13888.098" xlink:href="#m7cd9a46546" y="438.213898"/>
     <use style="stroke:#000000;" x="13898.196" xlink:href="#m7cd9a46546" y="438.213898"/>
     <use style="stroke:#000000;" x="13909.212" xlink:href="#m7cd9a46546" y="438.213898"/>
     <use style="stroke:#000000;" x="13910.13" xlink:href="#m7cd9a46546" y="438.213898"/>
     <use style="stroke:#000000;" x="13926.654" xlink:href="#m7cd9a46546" y="438.213898"/>
     <use style="stroke:#000000;" x="13927.572" xlink:href="#m7cd9a46546" y="438.213898"/>
     <use style="stroke:#000000;" x="13958.784" xlink:href="#m7cd9a46546" y="438.213898"/>
     <use style="stroke:#000000;" x="13967.964" xlink:href="#m7cd9a46546" y="438.213898"/>
     <use style="stroke:#000000;" x="13983.57" xlink:href="#m7cd9a46546" y="438.213898"/>
     <use style="stroke:#000000;" x="13999.176" xlink:href="#m7cd9a46546" y="438.213898"/>
     <use style="stroke:#000000;" x="14011.11" xlink:href="#m7cd9a46546" y="438.213898"/>
     <use style="stroke:#000000;" x="14021.208" xlink:href="#m7cd9a46546" y="438.213898"/>
     <use style="stroke:#000000;" x="14031.306" xlink:href="#m7cd9a46546" y="438.213898"/>
     <use style="stroke:#000000;" x="14049.666" xlink:href="#m7cd9a46546" y="438.213898"/>
     <use style="stroke:#000000;" x="14057.928" xlink:href="#m7cd9a46546" y="438.213898"/>
     <use style="stroke:#000000;" x="14092.812" xlink:href="#m7cd9a46546" y="438.213898"/>
     <use style="stroke:#000000;" x="14115.762" xlink:href="#m7cd9a46546" y="438.213898"/>
     <use style="stroke:#000000;" x="14116.68" xlink:href="#m7cd9a46546" y="438.213898"/>
     <use style="stroke:#000000;" x="14139.63" xlink:href="#m7cd9a46546" y="438.213898"/>
     <use style="stroke:#000000;" x="14149.728" xlink:href="#m7cd9a46546" y="438.213898"/>
     <use style="stroke:#000000;" x="14157.99" xlink:href="#m7cd9a46546" y="438.213898"/>
     <use style="stroke:#000000;" x="14168.088" xlink:href="#m7cd9a46546" y="438.213898"/>
     <use style="stroke:#000000;" x="14181.858" xlink:href="#m7cd9a46546" y="438.213898"/>
     <use style="stroke:#000000;" x="14200.218" xlink:href="#m7cd9a46546" y="438.213898"/>
     <use style="stroke:#000000;" x="14258.052" xlink:href="#m7cd9a46546" y="438.213898"/>
     <use style="stroke:#000000;" x="14275.494" xlink:href="#m7cd9a46546" y="438.213898"/>
     <use style="stroke:#000000;" x="14314.968" xlink:href="#m7cd9a46546" y="438.213898"/>
     <use style="stroke:#000000;" x="14325.066" xlink:href="#m7cd9a46546" y="438.213898"/>
     <use style="stroke:#000000;" x="14336.082" xlink:href="#m7cd9a46546" y="438.213898"/>
     <use style="stroke:#000000;" x="14367.294" xlink:href="#m7cd9a46546" y="438.213898"/>
     <use style="stroke:#000000;" x="14380.146" xlink:href="#m7cd9a46546" y="438.213898"/>
     <use style="stroke:#000000;" x="14407.686" xlink:href="#m7cd9a46546" y="438.213898"/>
     <use style="stroke:#000000;" x="14426.046" xlink:href="#m7cd9a46546" y="438.213898"/>
     <use style="stroke:#000000;" x="14471.028" xlink:href="#m7cd9a46546" y="438.213898"/>
     <use style="stroke:#000000;" x="14493.978" xlink:href="#m7cd9a46546" y="438.213898"/>
     <use style="stroke:#000000;" x="14509.584" xlink:href="#m7cd9a46546" y="438.213898"/>
     <use style="stroke:#000000;" x="14516.01" xlink:href="#m7cd9a46546" y="438.213898"/>
     <use style="stroke:#000000;" x="14520.6" xlink:href="#m7cd9a46546" y="438.213898"/>
     <use style="stroke:#000000;" x="14532.534" xlink:href="#m7cd9a46546" y="438.213898"/>
     <use style="stroke:#000000;" x="14533.452" xlink:href="#m7cd9a46546" y="438.213898"/>
     <use style="stroke:#000000;" x="14549.976" xlink:href="#m7cd9a46546" y="438.213898"/>
     <use style="stroke:#000000;" x="14575.68" xlink:href="#m7cd9a46546" y="438.213898"/>
     <use style="stroke:#000000;" x="14579.352" xlink:href="#m7cd9a46546" y="438.213898"/>
     <use style="stroke:#000000;" x="14594.958" xlink:href="#m7cd9a46546" y="438.213898"/>
     <use style="stroke:#000000;" x="14605.974" xlink:href="#m7cd9a46546" y="438.213898"/>
     <use style="stroke:#000000;" x="14616.072" xlink:href="#m7cd9a46546" y="438.213898"/>
     <use style="stroke:#000000;" x="14624.334" xlink:href="#m7cd9a46546" y="438.213898"/>
     <use style="stroke:#000000;" x="14640.858" xlink:href="#m7cd9a46546" y="438.213898"/>
     <use style="stroke:#000000;" x="14641.776" xlink:href="#m7cd9a46546" y="438.213898"/>
     <use style="stroke:#000000;" x="14658.3" xlink:href="#m7cd9a46546" y="438.213898"/>
     <use style="stroke:#000000;" x="14661.972" xlink:href="#m7cd9a46546" y="438.213898"/>
     <use style="stroke:#000000;" x="14668.398" xlink:href="#m7cd9a46546" y="438.213898"/>
     <use style="stroke:#000000;" x="14682.168" xlink:href="#m7cd9a46546" y="438.213898"/>
     <use style="stroke:#000000;" x="14704.2" xlink:href="#m7cd9a46546" y="438.213898"/>
     <use style="stroke:#000000;" x="14720.724" xlink:href="#m7cd9a46546" y="438.213898"/>
     <use style="stroke:#000000;" x="14723.478" xlink:href="#m7cd9a46546" y="438.213898"/>
     <use style="stroke:#000000;" x="14755.608" xlink:href="#m7cd9a46546" y="438.213898"/>
     <use style="stroke:#000000;" x="14774.886" xlink:href="#m7cd9a46546" y="438.213898"/>
     <use style="stroke:#000000;" x="14795.082" xlink:href="#m7cd9a46546" y="438.213898"/>
     <use style="stroke:#000000;" x="14808.852" xlink:href="#m7cd9a46546" y="438.213898"/>
     <use style="stroke:#000000;" x="14823.54" xlink:href="#m7cd9a46546" y="438.213898"/>
     <use style="stroke:#000000;" x="14846.49" xlink:href="#m7cd9a46546" y="438.213898"/>
     <use style="stroke:#000000;" x="14859.342" xlink:href="#m7cd9a46546" y="438.213898"/>
     <use style="stroke:#000000;" x="14870.358" xlink:href="#m7cd9a46546" y="438.213898"/>
     <use style="stroke:#000000;" x="14896.062" xlink:href="#m7cd9a46546" y="438.213898"/>
     <use style="stroke:#000000;" x="14931.864" xlink:href="#m7cd9a46546" y="438.213898"/>
     <use style="stroke:#000000;" x="14932.782" xlink:href="#m7cd9a46546" y="438.213898"/>
     <use style="stroke:#000000;" x="14948.388" xlink:href="#m7cd9a46546" y="438.213898"/>
     <use style="stroke:#000000;" x="15069.564" xlink:href="#m7cd9a46546" y="438.213898"/>
    </g>
   </g>
   <g id="patch_3">
    <path d="M 108 615.6 
L 108 32.4 
" style="fill:none;stroke:#000000;stroke-linecap:square;stroke-linejoin:miter;stroke-width:0.8;"/>
   </g>
   <g id="patch_4">
    <path d="M 1026 615.6 
L 1026 32.4 
" style="fill:none;stroke:#000000;stroke-linecap:square;stroke-linejoin:miter;stroke-width:0.8;"/>
   </g>
   <g id="patch_5">
    <path d="M 108 615.6 
L 1026 615.6 
" style="fill:none;stroke:#000000;stroke-linecap:square;stroke-linejoin:miter;stroke-width:0.8;"/>
   </g>
   <g id="patch_6">
    <path d="M 108 32.4 
L 1026 32.4 
" style="fill:none;stroke:#000000;stroke-linecap:square;stroke-linejoin:miter;stroke-width:0.8;"/>
   </g>
  </g>
 </g>
 <defs>
  <clipPath id="p9e7c5649a6">
   <rect height="583.2" width="918" x="108" y="32.4"/>
  </clipPath>
 </defs>
</svg>
