<?xml version="1.0" encoding="utf-8" standalone="no"?>
<!DOCTYPE svg PUBLIC "-//W3C//DTD SVG 1.1//EN"
  "http://www.w3.org/Graphics/SVG/1.1/DTD/svg11.dtd">
<!-- Created with matplotlib (http://matplotlib.org/) -->
<svg height="648pt" version="1.1" viewBox="0 0 1080 648" width="1080pt" xmlns="http://www.w3.org/2000/svg" xmlns:xlink="http://www.w3.org/1999/xlink">
 <defs>
  <style type="text/css">
*{stroke-linecap:butt;stroke-linejoin:round;}
  </style>
 </defs>
 <g id="figure_1">
  <g id="patch_1">
   <path d="M 0 648 
L 1080 648 
L 1080 0 
L 0 0 
z
" style="fill:none;"/>
  </g>
  <g id="axes_1">
   <g id="patch_2">
    <path d="M 135 576.72 
L 972 576.72 
L 972 77.76 
L 135 77.76 
z
" style="fill:none;"/>
   </g>
   <g id="matplotlib.axis_1">
    <g id="xtick_1">
     <g id="line2d_1">
      <defs>
       <path d="M 0 0 
L 0 3.5 
" id="md2b76c0bbe" style="stroke:#000000;stroke-width:0.8;"/>
      </defs>
      <g>
       <use style="stroke:#000000;stroke-width:0.8;" x="135" xlink:href="#md2b76c0bbe" y="576.72"/>
      </g>
     </g>
     <g id="text_1">
      <!-- 0 -->
      <defs>
       <path d="M 31.78125 66.40625 
Q 24.171875 66.40625 20.328125 58.90625 
Q 16.5 51.421875 16.5 36.375 
Q 16.5 21.390625 20.328125 13.890625 
Q 24.171875 6.390625 31.78125 6.390625 
Q 39.453125 6.390625 43.28125 13.890625 
Q 47.125 21.390625 47.125 36.375 
Q 47.125 51.421875 43.28125 58.90625 
Q 39.453125 66.40625 31.78125 66.40625 
z
M 31.78125 74.21875 
Q 44.046875 74.21875 50.515625 64.515625 
Q 56.984375 54.828125 56.984375 36.375 
Q 56.984375 17.96875 50.515625 8.265625 
Q 44.046875 -1.421875 31.78125 -1.421875 
Q 19.53125 -1.421875 13.0625 8.265625 
Q 6.59375 17.96875 6.59375 36.375 
Q 6.59375 54.828125 13.0625 64.515625 
Q 19.53125 74.21875 31.78125 74.21875 
z
" id="DejaVuSans-30"/>
      </defs>
      <g transform="translate(131.81875 591.318438)scale(0.1 -0.1)">
       <use xlink:href="#DejaVuSans-30"/>
      </g>
     </g>
    </g>
    <g id="xtick_2">
     <g id="line2d_2">
      <g>
       <use style="stroke:#000000;stroke-width:0.8;" x="302.4" xlink:href="#md2b76c0bbe" y="576.72"/>
      </g>
     </g>
     <g id="text_2">
      <!-- 200 -->
      <defs>
       <path d="M 19.1875 8.296875 
L 53.609375 8.296875 
L 53.609375 0 
L 7.328125 0 
L 7.328125 8.296875 
Q 12.9375 14.109375 22.625 23.890625 
Q 32.328125 33.6875 34.8125 36.53125 
Q 39.546875 41.84375 41.421875 45.53125 
Q 43.3125 49.21875 43.3125 52.78125 
Q 43.3125 58.59375 39.234375 62.25 
Q 35.15625 65.921875 28.609375 65.921875 
Q 23.96875 65.921875 18.8125 64.3125 
Q 13.671875 62.703125 7.8125 59.421875 
L 7.8125 69.390625 
Q 13.765625 71.78125 18.9375 73 
Q 24.125 74.21875 28.421875 74.21875 
Q 39.75 74.21875 46.484375 68.546875 
Q 53.21875 62.890625 53.21875 53.421875 
Q 53.21875 48.921875 51.53125 44.890625 
Q 49.859375 40.875 45.40625 35.40625 
Q 44.1875 33.984375 37.640625 27.21875 
Q 31.109375 20.453125 19.1875 8.296875 
z
" id="DejaVuSans-32"/>
      </defs>
      <g transform="translate(292.85625 591.318438)scale(0.1 -0.1)">
       <use xlink:href="#DejaVuSans-32"/>
       <use x="63.623047" xlink:href="#DejaVuSans-30"/>
       <use x="127.246094" xlink:href="#DejaVuSans-30"/>
      </g>
     </g>
    </g>
    <g id="xtick_3">
     <g id="line2d_3">
      <g>
       <use style="stroke:#000000;stroke-width:0.8;" x="469.8" xlink:href="#md2b76c0bbe" y="576.72"/>
      </g>
     </g>
     <g id="text_3">
      <!-- 400 -->
      <defs>
       <path d="M 37.796875 64.3125 
L 12.890625 25.390625 
L 37.796875 25.390625 
z
M 35.203125 72.90625 
L 47.609375 72.90625 
L 47.609375 25.390625 
L 58.015625 25.390625 
L 58.015625 17.1875 
L 47.609375 17.1875 
L 47.609375 0 
L 37.796875 0 
L 37.796875 17.1875 
L 4.890625 17.1875 
L 4.890625 26.703125 
z
" id="DejaVuSans-34"/>
      </defs>
      <g transform="translate(460.25625 591.318438)scale(0.1 -0.1)">
       <use xlink:href="#DejaVuSans-34"/>
       <use x="63.623047" xlink:href="#DejaVuSans-30"/>
       <use x="127.246094" xlink:href="#DejaVuSans-30"/>
      </g>
     </g>
    </g>
    <g id="xtick_4">
     <g id="line2d_4">
      <g>
       <use style="stroke:#000000;stroke-width:0.8;" x="637.2" xlink:href="#md2b76c0bbe" y="576.72"/>
      </g>
     </g>
     <g id="text_4">
      <!-- 600 -->
      <defs>
       <path d="M 33.015625 40.375 
Q 26.375 40.375 22.484375 35.828125 
Q 18.609375 31.296875 18.609375 23.390625 
Q 18.609375 15.53125 22.484375 10.953125 
Q 26.375 6.390625 33.015625 6.390625 
Q 39.65625 6.390625 43.53125 10.953125 
Q 47.40625 15.53125 47.40625 23.390625 
Q 47.40625 31.296875 43.53125 35.828125 
Q 39.65625 40.375 33.015625 40.375 
z
M 52.59375 71.296875 
L 52.59375 62.3125 
Q 48.875 64.0625 45.09375 64.984375 
Q 41.3125 65.921875 37.59375 65.921875 
Q 27.828125 65.921875 22.671875 59.328125 
Q 17.53125 52.734375 16.796875 39.40625 
Q 19.671875 43.65625 24.015625 45.921875 
Q 28.375 48.1875 33.59375 48.1875 
Q 44.578125 48.1875 50.953125 41.515625 
Q 57.328125 34.859375 57.328125 23.390625 
Q 57.328125 12.15625 50.6875 5.359375 
Q 44.046875 -1.421875 33.015625 -1.421875 
Q 20.359375 -1.421875 13.671875 8.265625 
Q 6.984375 17.96875 6.984375 36.375 
Q 6.984375 53.65625 15.1875 63.9375 
Q 23.390625 74.21875 37.203125 74.21875 
Q 40.921875 74.21875 44.703125 73.484375 
Q 48.484375 72.75 52.59375 71.296875 
z
" id="DejaVuSans-36"/>
      </defs>
      <g transform="translate(627.65625 591.318438)scale(0.1 -0.1)">
       <use xlink:href="#DejaVuSans-36"/>
       <use x="63.623047" xlink:href="#DejaVuSans-30"/>
       <use x="127.246094" xlink:href="#DejaVuSans-30"/>
      </g>
     </g>
    </g>
    <g id="xtick_5">
     <g id="line2d_5">
      <g>
       <use style="stroke:#000000;stroke-width:0.8;" x="804.6" xlink:href="#md2b76c0bbe" y="576.72"/>
      </g>
     </g>
     <g id="text_5">
      <!-- 800 -->
      <defs>
       <path d="M 31.78125 34.625 
Q 24.75 34.625 20.71875 30.859375 
Q 16.703125 27.09375 16.703125 20.515625 
Q 16.703125 13.921875 20.71875 10.15625 
Q 24.75 6.390625 31.78125 6.390625 
Q 38.8125 6.390625 42.859375 10.171875 
Q 46.921875 13.96875 46.921875 20.515625 
Q 46.921875 27.09375 42.890625 30.859375 
Q 38.875 34.625 31.78125 34.625 
z
M 21.921875 38.8125 
Q 15.578125 40.375 12.03125 44.71875 
Q 8.5 49.078125 8.5 55.328125 
Q 8.5 64.0625 14.71875 69.140625 
Q 20.953125 74.21875 31.78125 74.21875 
Q 42.671875 74.21875 48.875 69.140625 
Q 55.078125 64.0625 55.078125 55.328125 
Q 55.078125 49.078125 51.53125 44.71875 
Q 48 40.375 41.703125 38.8125 
Q 48.828125 37.15625 52.796875 32.3125 
Q 56.78125 27.484375 56.78125 20.515625 
Q 56.78125 9.90625 50.3125 4.234375 
Q 43.84375 -1.421875 31.78125 -1.421875 
Q 19.734375 -1.421875 13.25 4.234375 
Q 6.78125 9.90625 6.78125 20.515625 
Q 6.78125 27.484375 10.78125 32.3125 
Q 14.796875 37.15625 21.921875 38.8125 
z
M 18.3125 54.390625 
Q 18.3125 48.734375 21.84375 45.5625 
Q 25.390625 42.390625 31.78125 42.390625 
Q 38.140625 42.390625 41.71875 45.5625 
Q 45.3125 48.734375 45.3125 54.390625 
Q 45.3125 60.0625 41.71875 63.234375 
Q 38.140625 66.40625 31.78125 66.40625 
Q 25.390625 66.40625 21.84375 63.234375 
Q 18.3125 60.0625 18.3125 54.390625 
z
" id="DejaVuSans-38"/>
      </defs>
      <g transform="translate(795.05625 591.318438)scale(0.1 -0.1)">
       <use xlink:href="#DejaVuSans-38"/>
       <use x="63.623047" xlink:href="#DejaVuSans-30"/>
       <use x="127.246094" xlink:href="#DejaVuSans-30"/>
      </g>
     </g>
    </g>
    <g id="xtick_6">
     <g id="line2d_6">
      <g>
       <use style="stroke:#000000;stroke-width:0.8;" x="972" xlink:href="#md2b76c0bbe" y="576.72"/>
      </g>
     </g>
     <g id="text_6">
      <!-- 1000 -->
      <defs>
       <path d="M 12.40625 8.296875 
L 28.515625 8.296875 
L 28.515625 63.921875 
L 10.984375 60.40625 
L 10.984375 69.390625 
L 28.421875 72.90625 
L 38.28125 72.90625 
L 38.28125 8.296875 
L 54.390625 8.296875 
L 54.390625 0 
L 12.40625 0 
z
" id="DejaVuSans-31"/>
      </defs>
      <g transform="translate(959.275 591.318438)scale(0.1 -0.1)">
       <use xlink:href="#DejaVuSans-31"/>
       <use x="63.623047" xlink:href="#DejaVuSans-30"/>
       <use x="127.246094" xlink:href="#DejaVuSans-30"/>
       <use x="190.869141" xlink:href="#DejaVuSans-30"/>
      </g>
     </g>
    </g>
   </g>
   <g id="matplotlib.axis_2">
    <g id="ytick_1">
     <g id="line2d_7">
      <defs>
       <path d="M 0 0 
L -3.5 0 
" id="m3aea327efb" style="stroke:#000000;stroke-width:0.8;"/>
      </defs>
      <g>
       <use style="stroke:#000000;stroke-width:0.8;" x="135" xlink:href="#m3aea327efb" y="554.04"/>
      </g>
     </g>
     <g id="text_7">
      <!-- 0 -->
      <g transform="translate(121.6375 557.839219)scale(0.1 -0.1)">
       <use xlink:href="#DejaVuSans-30"/>
      </g>
     </g>
    </g>
    <g id="ytick_2">
     <g id="line2d_8">
      <g>
       <use style="stroke:#000000;stroke-width:0.8;" x="135" xlink:href="#m3aea327efb" y="489.498167"/>
      </g>
     </g>
     <g id="text_8">
      <!-- 250 -->
      <defs>
       <path d="M 10.796875 72.90625 
L 49.515625 72.90625 
L 49.515625 64.59375 
L 19.828125 64.59375 
L 19.828125 46.734375 
Q 21.96875 47.46875 24.109375 47.828125 
Q 26.265625 48.1875 28.421875 48.1875 
Q 40.625 48.1875 47.75 41.5 
Q 54.890625 34.8125 54.890625 23.390625 
Q 54.890625 11.625 47.5625 5.09375 
Q 40.234375 -1.421875 26.90625 -1.421875 
Q 22.3125 -1.421875 17.546875 -0.640625 
Q 12.796875 0.140625 7.71875 1.703125 
L 7.71875 11.625 
Q 12.109375 9.234375 16.796875 8.0625 
Q 21.484375 6.890625 26.703125 6.890625 
Q 35.15625 6.890625 40.078125 11.328125 
Q 45.015625 15.765625 45.015625 23.390625 
Q 45.015625 31 40.078125 35.4375 
Q 35.15625 39.890625 26.703125 39.890625 
Q 22.75 39.890625 18.8125 39.015625 
Q 14.890625 38.140625 10.796875 36.28125 
z
" id="DejaVuSans-35"/>
      </defs>
      <g transform="translate(108.9125 493.297386)scale(0.1 -0.1)">
       <use xlink:href="#DejaVuSans-32"/>
       <use x="63.623047" xlink:href="#DejaVuSans-35"/>
       <use x="127.246094" xlink:href="#DejaVuSans-30"/>
      </g>
     </g>
    </g>
    <g id="ytick_3">
     <g id="line2d_9">
      <g>
       <use style="stroke:#000000;stroke-width:0.8;" x="135" xlink:href="#m3aea327efb" y="424.956335"/>
      </g>
     </g>
     <g id="text_9">
      <!-- 500 -->
      <g transform="translate(108.9125 428.755553)scale(0.1 -0.1)">
       <use xlink:href="#DejaVuSans-35"/>
       <use x="63.623047" xlink:href="#DejaVuSans-30"/>
       <use x="127.246094" xlink:href="#DejaVuSans-30"/>
      </g>
     </g>
    </g>
    <g id="ytick_4">
     <g id="line2d_10">
      <g>
       <use style="stroke:#000000;stroke-width:0.8;" x="135" xlink:href="#m3aea327efb" y="360.414502"/>
      </g>
     </g>
     <g id="text_10">
      <!-- 750 -->
      <defs>
       <path d="M 8.203125 72.90625 
L 55.078125 72.90625 
L 55.078125 68.703125 
L 28.609375 0 
L 18.3125 0 
L 43.21875 64.59375 
L 8.203125 64.59375 
z
" id="DejaVuSans-37"/>
      </defs>
      <g transform="translate(108.9125 364.213721)scale(0.1 -0.1)">
       <use xlink:href="#DejaVuSans-37"/>
       <use x="63.623047" xlink:href="#DejaVuSans-35"/>
       <use x="127.246094" xlink:href="#DejaVuSans-30"/>
      </g>
     </g>
    </g>
    <g id="ytick_5">
     <g id="line2d_11">
      <g>
       <use style="stroke:#000000;stroke-width:0.8;" x="135" xlink:href="#m3aea327efb" y="295.872669"/>
      </g>
     </g>
     <g id="text_11">
      <!-- 1000 -->
      <g transform="translate(102.55 299.671888)scale(0.1 -0.1)">
       <use xlink:href="#DejaVuSans-31"/>
       <use x="63.623047" xlink:href="#DejaVuSans-30"/>
       <use x="127.246094" xlink:href="#DejaVuSans-30"/>
       <use x="190.869141" xlink:href="#DejaVuSans-30"/>
      </g>
     </g>
    </g>
    <g id="ytick_6">
     <g id="line2d_12">
      <g>
       <use style="stroke:#000000;stroke-width:0.8;" x="135" xlink:href="#m3aea327efb" y="231.330837"/>
      </g>
     </g>
     <g id="text_12">
      <!-- 1250 -->
      <g transform="translate(102.55 235.130055)scale(0.1 -0.1)">
       <use xlink:href="#DejaVuSans-31"/>
       <use x="63.623047" xlink:href="#DejaVuSans-32"/>
       <use x="127.246094" xlink:href="#DejaVuSans-35"/>
       <use x="190.869141" xlink:href="#DejaVuSans-30"/>
      </g>
     </g>
    </g>
    <g id="ytick_7">
     <g id="line2d_13">
      <g>
       <use style="stroke:#000000;stroke-width:0.8;" x="135" xlink:href="#m3aea327efb" y="166.789004"/>
      </g>
     </g>
     <g id="text_13">
      <!-- 1500 -->
      <g transform="translate(102.55 170.588223)scale(0.1 -0.1)">
       <use xlink:href="#DejaVuSans-31"/>
       <use x="63.623047" xlink:href="#DejaVuSans-35"/>
       <use x="127.246094" xlink:href="#DejaVuSans-30"/>
       <use x="190.869141" xlink:href="#DejaVuSans-30"/>
      </g>
     </g>
    </g>
    <g id="ytick_8">
     <g id="line2d_14">
      <g>
       <use style="stroke:#000000;stroke-width:0.8;" x="135" xlink:href="#m3aea327efb" y="102.247171"/>
      </g>
     </g>
     <g id="text_14">
      <!-- 1750 -->
      <g transform="translate(102.55 106.04639)scale(0.1 -0.1)">
       <use xlink:href="#DejaVuSans-31"/>
       <use x="63.623047" xlink:href="#DejaVuSans-37"/>
       <use x="127.246094" xlink:href="#DejaVuSans-35"/>
       <use x="190.869141" xlink:href="#DejaVuSans-30"/>
      </g>
     </g>
    </g>
   </g>
   <g id="line2d_15">
    <path clip-path="url(#pd1d4434f29)" d="M 135 526.674263 
L 135.837 525.641594 
L 136.674 523.576255 
L 137.511 520.478247 
L 138.348 515.831235 
L 139.185 510.409721 
L 140.022 505.762709 
L 140.859 502.664701 
L 142.533 498.534024 
L 143.37 495.694183 
L 149.229 466.521275 
L 150.066 461.357928 
L 152.577 441.995378 
L 161.784 371.25753 
L 163.458 361.189004 
L 165.132 351.378645 
L 167.643 334.339602 
L 168.48 329.69259 
L 169.317 326.336414 
L 170.154 324.271076 
L 170.991 323.496574 
L 171.828 322.980239 
L 172.665 322.722072 
L 174.339 322.722072 
L 175.176 323.754741 
L 176.013 325.303745 
L 176.85 328.143586 
L 179.361 338.212112 
L 180.198 341.051952 
L 181.035 343.117291 
L 181.872 345.698964 
L 182.709 349.313307 
L 183.546 354.218486 
L 184.383 361.189004 
L 187.731 395.783426 
L 188.568 402.23761 
L 191.079 418.243984 
L 191.916 425.214502 
L 193.59 442.511713 
L 195.264 459.550757 
L 196.938 472.717291 
L 198.612 484.334821 
L 201.123 502.148367 
L 201.96 506.795378 
L 202.797 510.409721 
L 205.308 519.703745 
L 206.145 523.318088 
L 206.982 526.416096 
L 207.819 528.997769 
L 208.656 530.546773 
L 209.493 530.80494 
L 210.33 530.80494 
L 211.167 531.063108 
L 212.004 531.83761 
L 212.841 533.128446 
L 214.515 536.484622 
L 215.352 537.517291 
L 216.189 537.517291 
L 217.026 537.259124 
L 217.863 536.742789 
L 218.7 536.484622 
L 219.537 537.259124 
L 220.374 538.54996 
L 221.211 540.098964 
L 222.048 541.389801 
L 222.885 542.164303 
L 223.722 542.42247 
L 225.396 541.906135 
L 227.07 540.873466 
L 227.907 540.615299 
L 228.744 540.615299 
L 229.581 540.873466 
L 231.255 542.42247 
L 232.929 544.487809 
L 233.766 544.745976 
L 234.603 544.745976 
L 235.44 544.229641 
L 237.114 542.680637 
L 238.788 542.164303 
L 241.299 542.164303 
L 242.136 541.906135 
L 244.647 542.680637 
L 245.484 543.196972 
L 247.158 543.196972 
L 247.995 542.680637 
L 249.669 541.131633 
L 250.506 540.615299 
L 253.017 538.291793 
L 254.691 536.226454 
L 255.528 535.451952 
L 256.365 535.451952 
L 257.202 535.968287 
L 258.039 537.000956 
L 258.876 538.291793 
L 259.713 539.840797 
L 260.55 541.131633 
L 261.387 542.164303 
L 262.224 542.680637 
L 263.061 542.938805 
L 263.898 542.938805 
L 264.735 542.680637 
L 265.572 542.680637 
L 267.246 543.196972 
L 268.083 543.713307 
L 269.757 544.229641 
L 271.431 543.196972 
L 272.268 542.42247 
L 274.779 540.873466 
L 275.616 540.098964 
L 276.453 539.066295 
L 277.29 537.259124 
L 278.127 534.935618 
L 278.964 532.095777 
L 280.638 525.125259 
L 281.475 520.22008 
L 282.312 514.282231 
L 283.149 506.279044 
L 283.986 496.726853 
L 285.66 472.459124 
L 287.334 447.158725 
L 289.008 426.247171 
L 291.519 398.623267 
L 293.193 376.937211 
L 295.704 343.891793 
L 297.378 321.689402 
L 298.215 308.522869 
L 299.889 277.026454 
L 301.563 245.788207 
L 302.4 233.654343 
L 303.237 225.392988 
L 304.074 221.004143 
L 304.911 221.004143 
L 305.748 225.134821 
L 306.585 233.91251 
L 307.422 247.079044 
L 308.259 264.89259 
L 309.096 286.578645 
L 310.77 337.953944 
L 313.281 416.436813 
L 314.955 461.357928 
L 315.792 480.720478 
L 316.629 497.243187 
L 317.466 510.926056 
L 318.303 521.252749 
L 319.14 528.739602 
L 319.977 533.902948 
L 320.814 537.000956 
L 322.488 540.873466 
L 324.999 546.553147 
L 325.836 548.876653 
L 326.673 550.425657 
L 327.51 551.458327 
L 328.347 551.458327 
L 329.184 550.683825 
L 330.858 548.102151 
L 331.695 547.327649 
L 332.532 547.327649 
L 335.043 549.651155 
L 335.88 549.909323 
L 336.717 549.651155 
L 337.554 548.876653 
L 338.391 547.585817 
L 339.228 546.811315 
L 340.065 546.29498 
L 340.902 546.553147 
L 341.739 547.327649 
L 342.576 548.360319 
L 343.413 549.909323 
L 344.25 550.941992 
L 345.087 551.200159 
L 345.924 550.425657 
L 346.761 548.876653 
L 348.435 545.004143 
L 349.272 543.455139 
L 350.109 543.196972 
L 350.946 543.971474 
L 352.62 546.553147 
L 353.457 547.585817 
L 354.294 547.843984 
L 355.131 547.069482 
L 357.642 543.196972 
L 358.479 542.680637 
L 359.316 542.680637 
L 360.153 543.196972 
L 361.827 544.745976 
L 362.664 545.262311 
L 366.012 545.262311 
L 366.849 545.778645 
L 368.523 547.843984 
L 369.36 548.618486 
L 370.197 549.134821 
L 371.034 548.618486 
L 371.871 547.585817 
L 372.708 546.29498 
L 373.545 544.745976 
L 374.382 543.971474 
L 375.219 543.971474 
L 376.056 544.229641 
L 376.893 545.004143 
L 377.73 545.520478 
L 378.567 545.520478 
L 379.404 545.004143 
L 380.241 543.971474 
L 381.078 543.455139 
L 381.915 543.196972 
L 382.752 543.455139 
L 383.589 544.487809 
L 384.426 545.778645 
L 385.263 546.811315 
L 386.1 547.585817 
L 386.937 547.585817 
L 389.448 546.811315 
L 390.285 547.069482 
L 391.122 547.843984 
L 391.959 549.134821 
L 393.633 551.200159 
L 394.47 551.458327 
L 395.307 551.458327 
L 396.981 550.425657 
L 397.818 550.16749 
L 398.655 550.425657 
L 399.492 550.941992 
L 401.166 552.490996 
L 402.003 552.749163 
L 402.84 552.749163 
L 404.514 551.200159 
L 406.188 549.134821 
L 407.025 548.618486 
L 408.699 548.102151 
L 409.536 548.360319 
L 410.373 548.876653 
L 411.21 549.134821 
L 412.884 550.16749 
L 413.721 550.425657 
L 414.558 550.425657 
L 416.232 549.909323 
L 417.069 549.392988 
L 417.906 549.134821 
L 418.743 548.618486 
L 419.58 548.360319 
L 420.417 548.360319 
L 421.254 548.102151 
L 423.765 548.102151 
L 424.602 547.843984 
L 426.276 547.843984 
L 427.95 546.811315 
L 429.624 544.745976 
L 430.461 543.971474 
L 431.298 543.713307 
L 432.135 544.229641 
L 432.972 545.520478 
L 433.809 547.069482 
L 435.483 550.425657 
L 436.32 551.200159 
L 437.157 551.200159 
L 437.994 550.425657 
L 438.831 549.134821 
L 439.668 546.811315 
L 440.505 542.938805 
L 441.342 535.968287 
L 442.179 524.867092 
L 443.016 507.828048 
L 443.853 483.818486 
L 444.69 452.580239 
L 445.527 413.855139 
L 447.201 321.431235 
L 448.875 229.523665 
L 449.712 194.671076 
L 450.549 172.726853 
L 451.386 166.272669 
L 452.223 176.341195 
L 453.06 200.867092 
L 453.897 236.494183 
L 456.408 360.930837 
L 457.245 393.976255 
L 458.082 417.985817 
L 458.919 431.926853 
L 459.756 435.799363 
L 460.593 430.894183 
L 461.43 419.276653 
L 463.104 387.780239 
L 463.941 375.13004 
L 464.778 368.934024 
L 465.615 370.999363 
L 466.452 381.326056 
L 467.289 399.139602 
L 468.963 446.900558 
L 470.637 493.11251 
L 471.474 510.667888 
L 472.311 523.834422 
L 473.148 532.870279 
L 473.985 538.808127 
L 474.822 542.164303 
L 475.659 544.487809 
L 476.496 545.778645 
L 477.333 546.811315 
L 478.17 547.069482 
L 479.007 546.553147 
L 479.844 545.262311 
L 480.681 543.713307 
L 481.518 541.906135 
L 482.355 540.873466 
L 483.192 540.873466 
L 484.029 541.906135 
L 486.54 549.134821 
L 487.377 550.683825 
L 488.214 551.458327 
L 489.888 551.458327 
L 490.725 551.200159 
L 491.562 551.458327 
L 492.399 552.232829 
L 493.236 552.749163 
L 494.073 553.523665 
L 495.747 554.04 
L 499.095 553.007331 
L 499.932 553.007331 
L 503.28 554.04 
L 505.791 554.04 
L 506.628 553.781833 
L 509.139 553.781833 
L 509.976 554.04 
L 512.487 554.04 
L 514.161 553.523665 
L 514.998 553.523665 
L 515.835 553.265498 
L 518.346 554.04 
L 520.857 554.04 
L 521.694 553.265498 
L 522.531 551.458327 
L 523.368 547.843984 
L 524.205 542.680637 
L 525.042 534.67745 
L 525.879 524.09259 
L 526.716 510.926056 
L 529.227 465.488606 
L 530.064 454.129243 
L 530.901 447.67506 
L 531.738 446.64239 
L 532.575 451.289402 
L 533.412 460.841594 
L 534.249 474.008127 
L 536.76 518.671076 
L 537.597 530.546773 
L 538.434 539.582629 
L 539.271 545.778645 
L 540.108 549.134821 
L 540.945 550.425657 
L 541.782 550.683825 
L 542.619 550.425657 
L 543.456 550.425657 
L 544.293 550.16749 
L 546.804 550.16749 
L 547.641 550.425657 
L 548.478 550.941992 
L 549.315 551.716494 
L 550.152 552.749163 
L 550.989 553.265498 
L 551.826 553.523665 
L 552.663 553.007331 
L 553.5 552.232829 
L 555.174 551.200159 
L 556.011 551.458327 
L 558.522 553.781833 
L 559.359 554.04 
L 561.87 554.04 
L 562.707 553.781833 
L 563.544 554.04 
L 568.566 554.04 
L 571.077 553.265498 
L 571.914 552.490996 
L 572.751 551.458327 
L 574.425 548.876653 
L 576.099 546.811315 
L 576.936 546.29498 
L 577.773 546.036813 
L 578.61 546.29498 
L 579.447 547.069482 
L 581.121 549.134821 
L 581.958 549.909323 
L 583.632 550.941992 
L 584.469 550.941992 
L 586.143 551.458327 
L 587.817 552.490996 
L 588.654 553.265498 
L 589.491 553.781833 
L 590.328 554.04 
L 592.002 554.04 
L 592.839 553.523665 
L 593.676 552.749163 
L 595.35 550.683825 
L 596.187 549.909323 
L 597.024 549.392988 
L 597.861 549.134821 
L 598.698 549.651155 
L 599.535 550.425657 
L 601.209 552.490996 
L 602.883 554.04 
L 625.482 554.04 
L 628.83 551.974661 
L 630.504 552.490996 
L 631.341 552.490996 
L 632.178 552.232829 
L 633.015 551.458327 
L 633.852 550.16749 
L 634.689 549.392988 
L 635.526 549.134821 
L 636.363 549.392988 
L 638.874 552.490996 
L 640.548 554.04 
L 642.222 554.04 
L 643.059 550.683825 
L 643.896 538.808127 
L 644.733 515.3149 
L 645.57 476.847968 
L 646.407 422.632829 
L 648.081 281.415299 
L 648.918 209.386614 
L 649.755 149.491793 
L 650.592 111.024861 
L 651.429 100.44 
L 652.266 119.80255 
L 653.103 166.272669 
L 653.94 232.879841 
L 655.614 383.907729 
L 656.451 448.707729 
L 657.288 498.017689 
L 658.125 530.288606 
L 658.962 547.585817 
L 659.799 554.04 
L 661.473 554.04 
L 662.31 553.523665 
L 663.984 554.04 
L 665.658 554.04 
L 667.332 551.458327 
L 668.169 550.683825 
L 669.006 550.425657 
L 669.843 550.683825 
L 670.68 551.200159 
L 672.354 551.716494 
L 673.191 551.716494 
L 674.028 550.941992 
L 674.865 548.618486 
L 675.702 543.713307 
L 676.539 534.67745 
L 677.376 520.994582 
L 678.213 502.406534 
L 680.724 439.93004 
L 681.561 427.279841 
L 682.398 423.407331 
L 683.235 428.570677 
L 684.072 441.737211 
L 684.909 460.841594 
L 686.583 503.697371 
L 687.42 522.027251 
L 688.257 536.226454 
L 689.094 545.778645 
L 689.931 551.200159 
L 690.768 553.781833 
L 691.605 554.04 
L 697.464 554.04 
L 698.301 553.523665 
L 699.138 553.265498 
L 699.975 552.749163 
L 700.812 552.490996 
L 702.486 552.490996 
L 703.323 552.749163 
L 706.671 552.749163 
L 710.019 553.781833 
L 710.856 553.523665 
L 711.693 553.007331 
L 712.53 552.232829 
L 713.367 551.716494 
L 714.204 550.941992 
L 717.552 549.909323 
L 718.389 549.392988 
L 719.226 548.618486 
L 720.063 548.102151 
L 720.9 547.843984 
L 721.737 548.102151 
L 722.574 548.876653 
L 723.411 549.909323 
L 724.248 551.200159 
L 725.922 553.265498 
L 727.596 553.781833 
L 728.433 553.523665 
L 729.27 553.523665 
L 731.781 552.749163 
L 733.455 551.200159 
L 734.292 549.909323 
L 735.129 549.134821 
L 735.966 548.618486 
L 736.803 548.618486 
L 737.64 549.651155 
L 738.477 550.941992 
L 739.314 552.490996 
L 740.151 553.523665 
L 740.988 553.781833 
L 741.825 552.749163 
L 742.662 550.16749 
L 743.499 545.778645 
L 744.336 539.066295 
L 745.173 530.288606 
L 746.01 518.671076 
L 747.684 490.272669 
L 748.521 476.073466 
L 749.358 464.197769 
L 750.195 456.710916 
L 751.032 455.42008 
L 751.869 461.099761 
L 752.706 472.717291 
L 754.38 506.537211 
L 755.217 523.576255 
L 756.054 537.775458 
L 756.891 547.327649 
L 757.728 552.749163 
L 758.565 554.04 
L 759.402 554.04 
L 760.239 552.749163 
L 761.076 551.200159 
L 761.913 550.16749 
L 762.75 549.392988 
L 764.424 548.876653 
L 766.098 549.392988 
L 767.772 550.425657 
L 770.283 552.749163 
L 771.12 553.265498 
L 771.957 554.04 
L 773.631 554.04 
L 774.468 552.232829 
L 775.305 546.811315 
L 776.142 536.742789 
L 776.979 520.736414 
L 777.816 499.050359 
L 780.327 424.181833 
L 781.164 408.94996 
L 782.001 404.302948 
L 782.838 411.789801 
L 783.675 429.603347 
L 787.023 528.481434 
L 787.86 542.42247 
L 788.697 550.425657 
L 789.534 553.523665 
L 790.371 554.04 
L 794.556 554.04 
L 795.393 553.523665 
L 797.067 551.458327 
L 797.904 550.941992 
L 798.741 550.941992 
L 799.578 551.458327 
L 800.415 552.232829 
L 801.252 552.749163 
L 802.089 553.007331 
L 802.926 552.749163 
L 804.6 551.716494 
L 805.437 551.458327 
L 806.274 551.458327 
L 809.622 553.523665 
L 811.296 554.04 
L 815.481 554.04 
L 816.318 553.781833 
L 817.155 554.04 
L 819.666 554.04 
L 820.503 553.781833 
L 821.34 552.490996 
L 823.014 549.392988 
L 823.851 548.618486 
L 824.688 548.618486 
L 825.525 549.651155 
L 827.199 552.749163 
L 828.036 553.781833 
L 828.873 554.04 
L 829.71 554.04 
L 830.547 553.781833 
L 831.384 553.265498 
L 832.221 552.490996 
L 833.058 551.974661 
L 833.895 551.974661 
L 834.732 552.232829 
L 837.243 553.781833 
L 838.08 554.04 
L 841.428 554.04 
L 843.102 553.523665 
L 843.939 553.007331 
L 845.613 552.490996 
L 846.45 551.974661 
L 847.287 551.200159 
L 848.124 549.909323 
L 848.961 548.102151 
L 849.798 546.811315 
L 850.635 546.036813 
L 851.472 546.553147 
L 853.146 548.618486 
L 853.983 549.134821 
L 854.82 549.134821 
L 855.657 549.909323 
L 856.494 551.716494 
L 857.331 554.04 
L 858.168 554.04 
L 859.005 550.16749 
L 859.842 529.514104 
L 860.679 488.723665 
L 861.516 425.730837 
L 864.027 180.73004 
L 864.864 125.998566 
L 865.701 105.345179 
L 866.538 122.384223 
L 867.375 173.759522 
L 869.049 332.53243 
L 869.886 412.047968 
L 870.723 476.331633 
L 871.56 520.478247 
L 872.397 544.745976 
L 873.234 554.04 
L 874.071 554.04 
L 874.908 553.781833 
L 875.745 552.490996 
L 876.582 552.232829 
L 877.419 552.749163 
L 878.256 553.007331 
L 879.093 552.749163 
L 879.93 551.974661 
L 880.767 551.458327 
L 881.604 551.458327 
L 884.115 553.781833 
L 885.789 553.781833 
L 886.626 553.265498 
L 887.463 553.265498 
L 889.974 554.04 
L 891.648 553.523665 
L 892.485 553.007331 
L 893.322 552.749163 
L 894.996 552.749163 
L 895.833 553.265498 
L 897.507 553.781833 
L 898.344 553.523665 
L 900.018 552.490996 
L 901.692 551.974661 
L 902.529 552.232829 
L 903.366 552.232829 
L 904.203 551.974661 
L 905.04 551.458327 
L 905.877 551.200159 
L 906.714 551.458327 
L 908.388 554.04 
L 909.225 554.04 
L 910.062 548.876653 
L 910.899 534.161116 
L 911.736 507.053546 
L 912.573 466.00494 
L 915.921 263.343586 
L 916.758 245.53004 
L 917.595 253.533227 
L 918.432 286.320478 
L 919.269 337.179442 
L 920.943 453.612908 
L 921.78 500.341195 
L 922.617 531.83761 
L 923.454 549.134821 
L 924.291 554.04 
L 925.128 554.04 
L 925.965 553.265498 
L 926.802 552.232829 
L 928.476 552.749163 
L 929.313 552.749163 
L 930.15 551.200159 
L 931.824 547.327649 
L 932.661 546.553147 
L 933.498 547.327649 
L 935.172 550.941992 
L 936.009 551.974661 
L 936.846 551.974661 
L 937.683 551.716494 
L 938.52 552.232829 
L 939.357 554.04 
L 940.194 554.04 
L 941.031 553.523665 
L 941.868 542.680637 
L 942.705 517.380239 
L 943.542 475.040797 
L 944.379 417.211315 
L 946.053 286.836813 
L 946.89 237.526853 
L 947.727 213.517291 
L 948.564 219.971474 
L 949.401 255.598566 
L 950.238 312.395378 
L 951.912 442.76988 
L 952.749 494.661514 
L 953.586 529.772271 
L 954.423 548.876653 
L 955.26 554.04 
L 956.097 554.04 
L 956.934 553.781833 
L 957.771 551.716494 
L 958.608 550.941992 
L 959.445 551.716494 
L 960.282 554.04 
L 961.956 554.04 
L 962.793 544.229641 
L 963.63 517.380239 
L 964.467 470.135618 
L 965.304 403.270279 
L 966.978 242.690199 
L 967.815 176.083028 
L 968.652 137.874263 
L 969.489 135.808924 
L 970.326 171.177849 
L 971.163 236.494183 
L 971.163 236.494183 
" style="fill:none;opacity:0.7;stroke:#000000;stroke-linecap:square;stroke-width:1.5;"/>
   </g>
   <g id="line2d_16">
    <path clip-path="url(#pd1d4434f29)" d="M 135 553.265498 
L 135.837 553.007331 
L 136.674 552.490996 
L 138.348 550.425657 
L 139.185 548.876653 
L 140.022 547.585817 
L 141.696 545.520478 
L 142.533 543.971474 
L 143.37 541.906135 
L 145.044 537.000956 
L 145.881 535.193785 
L 146.718 534.935618 
L 147.555 535.451952 
L 148.392 536.484622 
L 149.229 536.742789 
L 150.066 535.451952 
L 150.903 532.095777 
L 151.74 527.190598 
L 153.414 516.089402 
L 154.251 511.184223 
L 155.088 507.56988 
L 156.762 501.373865 
L 157.599 496.98502 
L 158.436 491.047171 
L 159.273 484.076653 
L 160.947 468.328446 
L 164.295 440.704542 
L 165.132 431.668685 
L 165.969 420.825657 
L 169.317 372.806534 
L 170.154 364.287012 
L 171.828 351.636813 
L 172.665 345.440797 
L 173.502 338.212112 
L 174.339 328.65992 
L 176.013 304.650359 
L 177.687 281.415299 
L 178.524 273.153944 
L 179.361 268.248765 
L 180.198 265.925259 
L 181.035 264.89259 
L 181.872 263.601753 
L 182.709 260.761912 
L 183.546 256.1149 
L 185.22 244.239203 
L 186.057 239.334024 
L 186.894 236.752351 
L 187.731 236.236016 
L 188.568 237.268685 
L 190.242 240.366693 
L 193.59 244.497371 
L 194.427 245.013705 
L 195.264 245.013705 
L 196.101 244.239203 
L 196.938 243.722869 
L 197.775 244.497371 
L 198.612 247.337211 
L 199.449 252.500558 
L 201.123 265.408924 
L 201.96 270.830438 
L 202.797 274.961116 
L 203.634 278.317291 
L 204.471 282.706135 
L 205.308 289.418486 
L 206.145 298.454343 
L 207.819 318.591394 
L 208.656 325.82008 
L 209.493 329.69259 
L 210.33 330.725259 
L 211.167 330.983426 
L 212.004 332.016096 
L 212.841 336.146773 
L 213.678 343.375458 
L 216.189 372.548367 
L 217.026 379.00255 
L 217.863 382.616892 
L 218.7 383.907729 
L 219.537 383.391394 
L 220.374 382.100558 
L 222.048 379.00255 
L 222.885 377.195378 
L 224.559 371.773865 
L 225.396 368.417689 
L 226.233 366.094183 
L 227.07 364.803347 
L 227.907 365.836016 
L 228.744 368.675857 
L 229.581 373.581036 
L 231.255 384.940398 
L 232.929 394.234422 
L 234.603 403.012112 
L 235.44 409.208127 
L 236.277 417.211315 
L 237.951 436.573865 
L 239.625 455.42008 
L 240.462 462.906932 
L 242.136 475.040797 
L 243.81 486.658327 
L 244.647 491.563506 
L 245.484 495.436016 
L 246.321 497.243187 
L 247.158 496.98502 
L 247.995 494.919681 
L 251.343 482.269482 
L 252.18 478.138805 
L 253.017 471.942789 
L 253.854 463.423267 
L 254.691 451.805737 
L 256.365 422.890996 
L 258.039 393.976255 
L 259.713 370.483028 
L 262.224 335.888606 
L 263.898 312.137211 
L 264.735 303.101355 
L 265.572 296.905339 
L 266.409 293.807331 
L 267.246 292.774661 
L 268.083 291.483825 
L 268.92 288.385817 
L 269.757 282.447968 
L 272.268 256.889402 
L 273.105 252.24239 
L 273.942 251.984223 
L 274.779 254.824064 
L 276.453 263.601753 
L 277.29 265.150757 
L 278.127 264.118088 
L 279.801 258.438406 
L 280.638 257.663904 
L 281.475 260.761912 
L 282.312 268.506932 
L 283.149 280.124462 
L 284.823 310.846375 
L 288.171 375.13004 
L 289.845 405.07745 
L 291.519 431.152351 
L 293.193 451.031235 
L 295.704 475.815299 
L 297.378 490.789004 
L 298.215 496.726853 
L 299.052 500.85753 
L 299.889 503.439203 
L 302.4 508.860717 
L 304.074 514.282231 
L 304.911 517.122072 
L 305.748 519.18741 
L 306.585 520.736414 
L 307.422 521.510916 
L 308.259 522.543586 
L 309.096 523.834422 
L 309.933 525.641594 
L 310.77 527.9651 
L 313.281 536.484622 
L 314.118 538.808127 
L 315.792 542.164303 
L 316.629 542.938805 
L 317.466 542.938805 
L 318.303 542.42247 
L 319.14 541.389801 
L 319.977 540.098964 
L 320.814 539.066295 
L 321.651 539.066295 
L 322.488 539.840797 
L 324.162 543.455139 
L 324.999 544.745976 
L 325.836 544.745976 
L 326.673 543.196972 
L 327.51 539.582629 
L 328.347 534.67745 
L 329.184 528.223267 
L 330.021 520.736414 
L 331.695 502.664701 
L 334.206 470.393785 
L 336.717 439.155538 
L 338.391 422.116494 
L 339.228 415.662311 
L 340.065 411.531633 
L 340.902 409.982629 
L 341.739 411.789801 
L 342.576 417.211315 
L 343.413 425.472669 
L 345.087 447.933227 
L 346.761 469.361116 
L 347.598 476.847968 
L 348.435 480.720478 
L 349.272 480.978645 
L 350.109 477.62247 
L 350.946 471.426454 
L 352.62 453.354741 
L 354.294 435.799363 
L 355.131 429.603347 
L 355.968 425.989004 
L 356.805 425.730837 
L 357.642 428.570677 
L 358.479 434.508526 
L 359.316 443.028048 
L 360.99 464.197769 
L 363.501 496.726853 
L 365.175 516.34757 
L 366.849 533.128446 
L 367.686 539.324462 
L 368.523 543.455139 
L 369.36 545.520478 
L 370.197 545.778645 
L 371.034 545.262311 
L 371.871 543.971474 
L 373.545 542.42247 
L 374.382 541.131633 
L 375.219 538.808127 
L 376.056 534.419283 
L 376.893 526.674263 
L 377.73 515.831235 
L 378.567 501.890199 
L 381.915 437.090199 
L 382.752 424.698167 
L 383.589 415.145976 
L 384.426 409.724462 
L 385.263 408.691793 
L 386.1 411.531633 
L 386.937 418.760319 
L 387.774 429.603347 
L 388.611 443.028048 
L 391.959 503.955538 
L 392.796 515.831235 
L 393.633 525.125259 
L 394.47 531.83761 
L 395.307 536.742789 
L 396.144 539.840797 
L 396.981 542.164303 
L 397.818 543.713307 
L 398.655 545.004143 
L 399.492 546.036813 
L 400.329 546.811315 
L 402.84 549.909323 
L 403.677 551.200159 
L 404.514 552.232829 
L 405.351 553.007331 
L 406.188 553.007331 
L 407.025 551.458327 
L 407.862 548.618486 
L 408.699 543.455139 
L 409.536 536.484622 
L 410.373 527.706932 
L 411.21 516.863904 
L 412.047 504.471873 
L 413.721 475.040797 
L 415.395 443.80255 
L 416.232 430.377849 
L 417.069 420.309323 
L 417.906 414.113307 
L 418.743 411.531633 
L 419.58 412.306135 
L 420.417 414.887809 
L 421.254 417.985817 
L 422.091 420.56749 
L 422.928 422.116494 
L 423.765 422.116494 
L 424.602 420.56749 
L 425.439 417.727649 
L 427.113 410.240797 
L 427.95 407.917291 
L 428.787 408.175458 
L 429.624 412.564303 
L 430.461 421.341992 
L 431.298 433.734024 
L 434.646 491.821673 
L 435.483 502.406534 
L 436.32 511.184223 
L 437.157 518.671076 
L 438.831 530.546773 
L 439.668 535.451952 
L 440.505 539.582629 
L 441.342 542.680637 
L 442.179 545.004143 
L 443.016 546.811315 
L 443.853 548.102151 
L 446.364 551.200159 
L 447.201 552.490996 
L 448.038 553.523665 
L 448.875 554.04 
L 449.712 553.781833 
L 450.549 553.007331 
L 453.06 547.585817 
L 453.897 546.553147 
L 454.734 546.553147 
L 455.571 547.327649 
L 458.082 552.490996 
L 458.919 553.265498 
L 459.756 553.781833 
L 460.593 553.781833 
L 462.267 553.265498 
L 463.104 553.265498 
L 463.941 552.749163 
L 464.778 551.716494 
L 465.615 549.651155 
L 466.452 546.29498 
L 467.289 540.615299 
L 468.126 532.612112 
L 468.963 521.510916 
L 469.8 506.020876 
L 470.637 485.883825 
L 471.474 461.357928 
L 473.985 377.453546 
L 474.822 355.76749 
L 475.659 342.084622 
L 476.496 337.953944 
L 477.333 343.117291 
L 478.17 356.283825 
L 479.007 375.388207 
L 482.355 464.714104 
L 483.192 479.945976 
L 484.029 488.981833 
L 484.866 490.272669 
L 485.703 483.302151 
L 486.54 468.070279 
L 487.377 447.158725 
L 489.051 400.688606 
L 489.888 383.391394 
L 490.725 374.097371 
L 491.562 374.613705 
L 492.399 384.682231 
L 493.236 401.979442 
L 494.91 447.933227 
L 496.584 493.628845 
L 497.421 512.733227 
L 498.258 528.223267 
L 499.095 540.098964 
L 499.932 547.843984 
L 500.769 552.490996 
L 501.606 554.04 
L 504.954 554.04 
L 506.628 553.523665 
L 507.465 552.749163 
L 508.302 551.458327 
L 509.139 549.651155 
L 509.976 546.811315 
L 510.813 542.938805 
L 511.65 537.000956 
L 512.487 528.739602 
L 513.324 516.863904 
L 514.161 501.632032 
L 515.835 462.906932 
L 517.509 424.44 
L 518.346 411.015299 
L 519.183 404.302948 
L 520.02 405.593785 
L 520.857 414.629641 
L 521.694 430.377849 
L 523.368 474.266295 
L 525.042 517.380239 
L 525.879 533.386614 
L 526.716 544.487809 
L 527.553 551.200159 
L 528.39 554.04 
L 530.064 554.04 
L 530.901 553.781833 
L 532.575 553.781833 
L 533.412 554.04 
L 535.086 554.04 
L 535.923 553.781833 
L 536.76 554.04 
L 539.271 554.04 
L 540.945 553.523665 
L 542.619 554.04 
L 543.456 554.04 
L 544.293 553.523665 
L 545.13 549.134821 
L 545.967 540.098964 
L 546.804 525.899761 
L 547.641 507.053546 
L 550.152 440.704542 
L 550.989 422.632829 
L 551.826 408.94996 
L 552.663 399.914104 
L 553.5 395.267092 
L 554.337 393.976255 
L 555.174 395.525259 
L 556.848 400.688606 
L 557.685 401.979442 
L 558.522 400.172271 
L 559.359 395.525259 
L 561.87 374.355538 
L 562.707 372.548367 
L 563.544 375.388207 
L 564.381 382.100558 
L 565.218 390.62008 
L 566.055 397.074263 
L 566.892 398.881434 
L 567.729 394.750757 
L 568.566 385.973068 
L 569.403 375.646375 
L 570.24 367.38502 
L 571.077 364.545179 
L 571.914 367.901355 
L 572.751 376.162709 
L 573.588 386.231235 
L 574.425 394.49259 
L 575.262 397.848765 
L 576.099 395.525259 
L 576.936 388.038406 
L 578.61 369.192191 
L 579.447 362.996175 
L 580.284 361.189004 
L 581.121 364.028845 
L 583.632 379.777052 
L 584.469 380.551554 
L 585.306 376.937211 
L 586.143 369.708526 
L 587.817 352.669482 
L 588.654 348.538805 
L 589.491 350.862311 
L 590.328 360.930837 
L 591.165 378.744382 
L 592.002 402.753944 
L 595.35 511.700558 
L 596.187 530.030438 
L 597.024 542.680637 
L 597.861 549.909323 
L 598.698 553.265498 
L 599.535 554.04 
L 603.72 554.04 
L 604.557 553.781833 
L 605.394 553.265498 
L 606.231 553.523665 
L 607.068 554.04 
L 607.905 554.04 
L 608.742 553.265498 
L 609.579 546.811315 
L 610.416 533.386614 
L 611.253 511.958725 
L 612.09 483.043984 
L 615.438 345.440797 
L 616.275 325.045578 
L 617.112 317.300558 
L 617.949 323.238406 
L 618.786 342.342789 
L 619.623 372.032032 
L 622.134 482.269482 
L 622.971 511.44239 
L 623.808 532.612112 
L 624.645 545.520478 
L 625.482 552.232829 
L 626.319 554.04 
L 627.993 554.04 
L 628.83 553.781833 
L 629.667 554.04 
L 633.852 554.04 
L 635.526 553.523665 
L 636.363 553.007331 
L 637.2 551.458327 
L 638.037 549.392988 
L 640.548 540.873466 
L 641.385 539.066295 
L 642.222 538.54996 
L 643.059 539.324462 
L 644.733 543.713307 
L 646.407 549.134821 
L 647.244 550.941992 
L 648.081 552.232829 
L 648.918 553.007331 
L 649.755 553.007331 
L 650.592 552.490996 
L 651.429 551.716494 
L 652.266 550.683825 
L 653.103 550.16749 
L 653.94 550.425657 
L 654.777 551.200159 
L 656.451 553.781833 
L 657.288 554.04 
L 658.125 554.04 
L 659.799 552.490996 
L 660.636 552.490996 
L 661.473 552.749163 
L 662.31 552.232829 
L 663.147 549.392988 
L 663.984 540.873466 
L 664.821 524.867092 
L 665.658 500.083028 
L 666.495 467.295777 
L 668.169 392.427251 
L 669.006 360.930837 
L 669.843 340.535618 
L 670.68 334.597769 
L 671.517 344.14996 
L 672.354 367.126853 
L 673.191 399.655936 
L 674.865 472.717291 
L 675.702 503.439203 
L 676.539 526.93243 
L 677.376 542.164303 
L 678.213 550.683825 
L 679.05 554.04 
L 680.724 554.04 
L 683.235 550.941992 
L 684.072 550.16749 
L 685.746 549.651155 
L 687.42 550.16749 
L 688.257 550.16749 
L 689.094 549.651155 
L 689.931 548.876653 
L 691.605 546.29498 
L 692.442 545.520478 
L 693.279 545.262311 
L 694.116 545.520478 
L 694.953 546.553147 
L 695.79 547.327649 
L 696.627 547.843984 
L 697.464 548.102151 
L 699.138 547.585817 
L 699.975 547.069482 
L 700.812 546.811315 
L 701.649 545.520478 
L 702.486 542.938805 
L 703.323 537.000956 
L 704.16 527.190598 
L 704.997 512.216892 
L 705.834 492.338008 
L 707.508 446.900558 
L 708.345 427.279841 
L 709.182 414.371474 
L 710.019 410.240797 
L 710.856 414.113307 
L 712.53 432.18502 
L 713.367 436.573865 
L 714.204 432.18502 
L 715.041 417.469482 
L 715.878 394.234422 
L 717.552 340.27745 
L 718.389 321.173068 
L 719.226 313.944382 
L 720.063 320.656733 
L 720.9 341.051952 
L 721.737 372.032032 
L 724.248 486.400159 
L 725.085 516.089402 
L 725.922 537.000956 
L 726.759 549.134821 
L 727.596 554.04 
L 729.27 554.04 
L 730.107 553.523665 
L 730.944 552.490996 
L 731.781 549.651155 
L 732.618 542.164303 
L 733.455 526.674263 
L 734.292 501.632032 
L 735.129 466.779442 
L 737.64 341.051952 
L 738.477 312.911713 
L 739.314 301.036016 
L 740.151 307.490199 
L 740.988 330.725259 
L 741.825 366.352351 
L 743.499 449.482231 
L 744.336 485.625657 
L 745.173 513.507729 
L 746.01 532.612112 
L 746.847 544.229641 
L 747.684 549.909323 
L 748.521 552.232829 
L 749.358 552.749163 
L 751.032 553.265498 
L 751.869 554.04 
L 752.706 554.04 
L 753.543 553.265498 
L 754.38 548.876653 
L 755.217 539.066295 
L 756.054 521.769084 
L 756.891 495.694183 
L 757.728 460.583426 
L 760.239 332.016096 
L 761.076 300.003347 
L 761.913 283.480637 
L 762.75 285.287809 
L 763.587 304.650359 
L 766.098 400.946773 
L 766.935 416.436813 
L 767.772 414.629641 
L 768.609 397.590598 
L 770.283 345.698964 
L 771.12 329.434422 
L 771.957 328.143586 
L 772.794 342.859124 
L 773.631 370.999363 
L 776.142 477.62247 
L 776.979 504.988207 
L 777.816 524.867092 
L 778.653 538.033625 
L 779.49 545.778645 
L 780.327 549.651155 
L 781.164 551.716494 
L 782.001 553.007331 
L 782.838 554.04 
L 783.675 554.04 
L 784.512 551.716494 
L 785.349 539.324462 
L 786.186 512.991394 
L 787.023 469.361116 
L 787.86 408.94996 
L 790.371 197.769084 
L 791.208 153.364303 
L 792.045 137.099761 
L 792.882 150.008127 
L 793.719 187.700558 
L 796.23 344.14996 
L 797.067 375.904542 
L 797.904 389.071076 
L 798.741 386.74757 
L 800.415 364.803347 
L 801.252 361.447171 
L 802.089 368.675857 
L 802.926 385.7149 
L 803.763 406.626454 
L 804.6 424.181833 
L 805.437 430.636016 
L 806.274 422.890996 
L 807.111 401.979442 
L 808.785 348.280637 
L 809.622 332.016096 
L 810.459 330.725259 
L 811.296 343.891793 
L 812.97 389.329243 
L 813.807 404.302948 
L 814.644 405.593785 
L 815.481 391.910916 
L 817.992 320.656733 
L 818.829 313.428048 
L 819.666 322.463904 
L 820.503 345.182629 
L 822.177 402.495777 
L 823.014 419.792988 
L 823.851 422.374661 
L 824.688 409.724462 
L 827.199 342.342789 
L 828.036 336.40494 
L 828.873 347.247968 
L 829.71 373.322869 
L 833.058 515.3149 
L 833.895 534.935618 
L 834.732 546.29498 
L 835.569 552.490996 
L 836.406 554.04 
L 837.243 554.04 
L 838.08 549.134821 
L 838.917 536.484622 
L 839.754 514.282231 
L 840.591 483.043984 
L 842.265 408.433625 
L 843.102 377.453546 
L 843.939 359.381833 
L 844.776 357.574661 
L 845.613 371.773865 
L 846.45 398.623267 
L 848.961 501.373865 
L 849.798 526.416096 
L 850.635 542.938805 
L 851.472 551.716494 
L 852.309 554.04 
L 853.146 554.04 
L 853.983 552.232829 
L 855.657 546.811315 
L 856.494 544.487809 
L 857.331 543.196972 
L 858.168 542.938805 
L 859.005 543.713307 
L 859.842 545.520478 
L 861.516 550.16749 
L 862.353 551.974661 
L 863.19 553.007331 
L 864.027 553.523665 
L 865.701 554.04 
L 869.049 554.04 
L 871.56 553.265498 
L 872.397 553.265498 
L 874.071 553.781833 
L 874.908 553.781833 
L 875.745 553.265498 
L 876.582 553.007331 
L 877.419 553.265498 
L 878.256 554.04 
L 879.093 554.04 
L 879.93 553.523665 
L 880.767 548.102151 
L 881.604 535.968287 
L 882.441 515.3149 
L 883.278 487.174661 
L 884.952 424.44 
L 885.789 401.20494 
L 886.626 390.878247 
L 887.463 395.525259 
L 888.3 413.080637 
L 889.974 463.939602 
L 890.811 481.753147 
L 891.648 486.141992 
L 892.485 476.073466 
L 893.322 454.129243 
L 894.996 403.012112 
L 895.833 389.071076 
L 896.67 389.071076 
L 897.507 403.012112 
L 900.018 471.684622 
L 900.855 479.171474 
L 901.692 471.684622 
L 902.529 450.5149 
L 904.203 391.136414 
L 905.04 367.901355 
L 905.877 357.832829 
L 906.714 363.51251 
L 907.551 383.649562 
L 908.388 414.629641 
L 910.062 485.109323 
L 910.899 514.282231 
L 911.736 534.935618 
L 912.573 547.327649 
L 913.41 553.007331 
L 914.247 554.04 
L 915.084 554.04 
L 916.758 553.523665 
L 917.595 554.04 
L 920.943 554.04 
L 922.617 553.523665 
L 924.291 553.523665 
L 925.128 553.781833 
L 926.802 553.781833 
L 927.639 554.04 
L 935.172 554.04 
L 936.009 553.523665 
L 936.846 552.490996 
L 937.683 551.200159 
L 938.52 549.651155 
L 939.357 547.843984 
L 940.194 546.553147 
L 941.031 545.778645 
L 941.868 545.778645 
L 942.705 546.811315 
L 945.216 550.683825 
L 946.89 552.232829 
L 949.401 553.781833 
L 950.238 554.04 
L 951.075 554.04 
L 952.749 552.490996 
L 953.586 551.458327 
L 954.423 550.683825 
L 955.26 550.425657 
L 956.097 550.683825 
L 956.934 550.683825 
L 957.771 550.16749 
L 958.608 548.618486 
L 961.119 542.164303 
L 961.956 541.389801 
L 962.793 541.906135 
L 963.63 543.196972 
L 965.304 547.069482 
L 966.141 548.360319 
L 966.978 549.392988 
L 968.652 550.941992 
L 971.163 554.04 
L 971.163 554.04 
" style="fill:none;opacity:0.7;stroke:#4daf4a;stroke-linecap:square;stroke-width:1.5;"/>
   </g>
   <g id="line2d_17">
    <path clip-path="url(#pd1d4434f29)" d="M 135 554.04 
L 142.533 554.04 
L 143.37 553.781833 
L 145.044 552.749163 
L 145.881 552.490996 
L 146.718 552.749163 
L 147.555 553.265498 
L 148.392 553.523665 
L 149.229 553.523665 
L 150.066 552.490996 
L 152.577 546.811315 
L 153.414 545.778645 
L 154.251 546.036813 
L 155.925 548.102151 
L 156.762 548.360319 
L 157.599 547.585817 
L 160.11 540.873466 
L 160.947 540.098964 
L 161.784 540.873466 
L 163.458 545.262311 
L 164.295 546.553147 
L 165.132 546.036813 
L 165.969 543.971474 
L 168.48 533.128446 
L 169.317 530.546773 
L 170.154 528.997769 
L 170.991 527.9651 
L 172.665 525.383426 
L 174.339 522.027251 
L 176.85 518.154741 
L 177.687 516.089402 
L 178.524 512.733227 
L 179.361 508.344382 
L 181.872 490.789004 
L 182.709 486.400159 
L 183.546 483.302151 
L 186.057 476.331633 
L 186.894 472.459124 
L 188.568 461.616096 
L 190.242 449.998566 
L 191.916 440.188207 
L 193.59 430.377849 
L 194.427 424.956335 
L 196.938 405.851952 
L 197.775 398.3651 
L 198.612 389.845578 
L 199.449 380.035219 
L 201.123 356.541992 
L 205.308 289.418486 
L 208.656 234.170677 
L 209.493 223.843984 
L 210.33 215.324462 
L 214.515 178.664701 
L 215.352 173.501355 
L 216.189 171.952351 
L 217.026 175.050359 
L 217.863 182.020876 
L 219.537 202.157928 
L 220.374 212.226454 
L 221.211 220.745976 
L 223.722 242.432032 
L 225.396 259.471076 
L 227.07 276.51012 
L 227.907 283.22247 
L 228.744 288.643984 
L 229.581 293.032829 
L 232.929 307.748367 
L 236.277 322.722072 
L 237.114 325.303745 
L 237.951 327.110916 
L 238.788 328.401753 
L 239.625 328.918088 
L 241.299 330.983426 
L 242.973 334.855936 
L 243.81 337.179442 
L 244.647 338.986614 
L 245.484 340.27745 
L 246.321 341.31012 
L 247.158 342.600956 
L 247.995 344.14996 
L 249.669 348.538805 
L 252.18 356.283825 
L 253.017 359.898167 
L 253.854 365.836016 
L 254.691 374.871873 
L 255.528 387.263904 
L 257.202 419.276653 
L 258.876 449.224064 
L 259.713 460.325259 
L 260.55 468.844781 
L 263.061 491.305339 
L 265.572 518.412908 
L 266.409 524.867092 
L 267.246 528.997769 
L 268.083 530.80494 
L 269.757 531.321275 
L 270.594 532.095777 
L 271.431 533.644781 
L 272.268 535.968287 
L 273.105 537.775458 
L 273.942 538.808127 
L 274.779 538.54996 
L 276.453 535.968287 
L 277.29 534.935618 
L 278.127 535.451952 
L 278.964 537.259124 
L 280.638 542.42247 
L 281.475 543.971474 
L 282.312 544.229641 
L 283.149 543.196972 
L 285.66 537.000956 
L 286.497 536.484622 
L 287.334 537.000956 
L 288.171 538.291793 
L 289.845 541.389801 
L 290.682 542.680637 
L 291.519 543.713307 
L 292.356 544.229641 
L 294.867 546.553147 
L 295.704 547.069482 
L 296.541 547.843984 
L 297.378 548.102151 
L 298.215 548.618486 
L 299.052 548.618486 
L 300.726 549.134821 
L 301.563 549.651155 
L 302.4 550.425657 
L 303.237 551.458327 
L 304.911 553.007331 
L 305.748 553.523665 
L 306.585 553.781833 
L 309.933 553.781833 
L 310.77 554.04 
L 312.444 554.04 
L 314.118 553.523665 
L 314.955 553.007331 
L 315.792 552.749163 
L 317.466 551.716494 
L 318.303 550.941992 
L 319.14 549.909323 
L 319.977 548.618486 
L 320.814 547.585817 
L 321.651 546.811315 
L 324.162 546.036813 
L 324.999 545.004143 
L 325.836 543.713307 
L 326.673 542.164303 
L 327.51 540.873466 
L 328.347 540.873466 
L 329.184 542.164303 
L 330.021 544.229641 
L 330.858 546.811315 
L 331.695 548.618486 
L 332.532 549.392988 
L 333.369 548.876653 
L 335.043 546.811315 
L 335.88 546.553147 
L 336.717 546.811315 
L 337.554 547.843984 
L 338.391 549.134821 
L 339.228 549.909323 
L 340.065 549.909323 
L 340.902 548.876653 
L 342.576 545.778645 
L 343.413 544.745976 
L 344.25 544.745976 
L 345.087 545.520478 
L 345.924 546.811315 
L 346.761 548.360319 
L 347.598 549.651155 
L 348.435 550.425657 
L 349.272 550.683825 
L 350.109 550.683825 
L 350.946 550.425657 
L 351.783 550.425657 
L 356.805 553.523665 
L 358.479 554.04 
L 360.99 554.04 
L 361.827 553.781833 
L 363.501 553.781833 
L 364.338 554.04 
L 366.849 554.04 
L 368.523 553.523665 
L 370.197 552.490996 
L 371.034 551.716494 
L 372.708 549.651155 
L 373.545 549.134821 
L 374.382 548.876653 
L 375.219 549.134821 
L 376.893 550.683825 
L 377.73 551.200159 
L 378.567 550.941992 
L 379.404 550.16749 
L 380.241 549.134821 
L 381.078 548.360319 
L 381.915 548.360319 
L 382.752 549.392988 
L 384.426 552.749163 
L 385.263 554.04 
L 386.1 554.04 
L 386.937 553.781833 
L 389.448 549.909323 
L 390.285 549.134821 
L 391.122 548.876653 
L 391.959 548.876653 
L 392.796 549.392988 
L 393.633 550.16749 
L 394.47 551.200159 
L 395.307 552.490996 
L 396.144 553.523665 
L 396.981 554.04 
L 397.818 553.265498 
L 398.655 550.425657 
L 399.492 545.262311 
L 400.329 537.775458 
L 401.166 527.9651 
L 402.003 515.831235 
L 402.84 501.632032 
L 403.677 484.851155 
L 405.351 445.093386 
L 407.025 404.819283 
L 407.862 389.071076 
L 408.699 379.260717 
L 409.536 376.420876 
L 410.373 380.809721 
L 411.21 391.910916 
L 412.047 408.433625 
L 413.721 450.5149 
L 415.395 492.854343 
L 416.232 509.893386 
L 417.069 522.801753 
L 417.906 531.579442 
L 418.743 537.000956 
L 419.58 539.840797 
L 420.417 541.906135 
L 421.254 543.455139 
L 423.765 550.16749 
L 424.602 551.974661 
L 425.439 553.007331 
L 426.276 553.265498 
L 427.113 552.749163 
L 427.95 551.458327 
L 428.787 549.651155 
L 429.624 546.553147 
L 430.461 541.906135 
L 431.298 534.935618 
L 432.135 524.867092 
L 432.972 511.184223 
L 433.809 493.628845 
L 435.483 450.256733 
L 437.157 408.433625 
L 437.994 394.234422 
L 438.831 387.005737 
L 439.668 387.780239 
L 440.505 396.299761 
L 441.342 411.015299 
L 443.016 451.031235 
L 444.69 491.305339 
L 445.527 508.086215 
L 446.364 521.769084 
L 447.201 532.353944 
L 448.038 540.615299 
L 448.875 546.036813 
L 449.712 549.651155 
L 450.549 551.458327 
L 451.386 551.974661 
L 452.223 551.974661 
L 453.06 551.716494 
L 453.897 551.716494 
L 454.734 551.974661 
L 455.571 552.749163 
L 457.245 553.781833 
L 458.082 554.04 
L 463.104 554.04 
L 465.615 552.490996 
L 466.452 552.232829 
L 468.126 552.749163 
L 468.963 553.523665 
L 469.8 554.04 
L 476.496 554.04 
L 477.333 553.781833 
L 478.17 552.749163 
L 479.007 551.458327 
L 479.844 549.909323 
L 480.681 548.618486 
L 481.518 547.585817 
L 482.355 547.069482 
L 483.192 547.327649 
L 484.029 547.843984 
L 484.866 548.876653 
L 485.703 550.16749 
L 487.377 551.716494 
L 488.214 551.716494 
L 489.051 550.683825 
L 489.888 548.102151 
L 490.725 542.938805 
L 491.562 534.67745 
L 492.399 522.285418 
L 493.236 504.471873 
L 494.073 480.462311 
L 494.91 451.031235 
L 497.421 350.862311 
L 498.258 326.594582 
L 499.095 314.20255 
L 499.932 315.493386 
L 500.769 330.467092 
L 501.606 356.541992 
L 504.954 487.949163 
L 505.791 511.184223 
L 506.628 528.481434 
L 507.465 540.357131 
L 508.302 547.843984 
L 509.139 551.974661 
L 509.976 553.007331 
L 510.813 552.232829 
L 513.324 546.29498 
L 514.161 545.778645 
L 514.998 546.036813 
L 515.835 546.553147 
L 516.672 547.327649 
L 517.509 547.843984 
L 518.346 547.843984 
L 521.694 546.811315 
L 524.205 546.811315 
L 525.042 546.553147 
L 526.716 547.069482 
L 527.553 547.585817 
L 528.39 548.360319 
L 530.064 549.392988 
L 530.901 549.651155 
L 532.575 550.683825 
L 533.412 550.683825 
L 534.249 549.651155 
L 535.086 546.036813 
L 535.923 539.066295 
L 536.76 527.706932 
L 537.597 511.700558 
L 538.434 491.305339 
L 540.945 423.149163 
L 541.782 406.884622 
L 542.619 397.848765 
L 543.456 397.590598 
L 544.293 405.851952 
L 545.13 421.858327 
L 546.804 466.263108 
L 548.478 509.377052 
L 549.315 525.641594 
L 550.152 537.775458 
L 550.989 546.036813 
L 551.826 551.200159 
L 552.663 553.523665 
L 553.5 554.04 
L 554.337 554.04 
L 555.174 553.007331 
L 556.848 549.909323 
L 557.685 548.876653 
L 558.522 548.102151 
L 559.359 547.843984 
L 560.196 548.360319 
L 561.033 549.134821 
L 561.87 550.16749 
L 562.707 551.458327 
L 563.544 552.232829 
L 564.381 552.490996 
L 565.218 551.716494 
L 566.055 550.16749 
L 567.729 546.811315 
L 568.566 546.036813 
L 569.403 546.553147 
L 570.24 547.585817 
L 571.077 549.392988 
L 571.914 550.683825 
L 572.751 551.458327 
L 573.588 551.458327 
L 576.099 549.909323 
L 576.936 550.16749 
L 578.61 550.16749 
L 579.447 549.651155 
L 580.284 548.618486 
L 581.121 547.069482 
L 581.958 546.036813 
L 582.795 545.262311 
L 583.632 545.004143 
L 584.469 545.262311 
L 586.98 546.811315 
L 587.817 546.553147 
L 588.654 544.487809 
L 589.491 539.066295 
L 590.328 528.223267 
L 591.165 509.893386 
L 592.002 483.302151 
L 593.676 412.047968 
L 594.513 374.871873 
L 595.35 343.375458 
L 596.187 322.205737 
L 597.024 314.977052 
L 597.861 322.205737 
L 598.698 341.568287 
L 601.209 421.083825 
L 602.046 433.734024 
L 602.883 432.18502 
L 603.72 415.920478 
L 604.557 387.780239 
L 606.231 323.496574 
L 607.068 302.58502 
L 607.905 296.647171 
L 608.742 308.264701 
L 609.579 335.114104 
L 611.253 415.404143 
L 612.09 456.452749 
L 612.927 491.821673 
L 613.764 518.671076 
L 614.601 537.000956 
L 615.438 548.102151 
L 616.275 553.523665 
L 617.112 554.04 
L 617.949 553.007331 
L 618.786 546.29498 
L 619.623 533.902948 
L 620.46 514.282231 
L 621.297 486.658327 
L 622.971 413.338805 
L 623.808 375.646375 
L 624.645 344.666295 
L 625.482 325.561912 
L 626.319 322.463904 
L 627.156 335.888606 
L 627.993 363.254343 
L 630.504 467.295777 
L 631.341 485.36749 
L 632.178 487.690996 
L 633.015 473.233625 
L 633.852 445.093386 
L 636.363 332.274263 
L 637.2 306.973865 
L 638.037 296.389004 
L 638.874 303.617689 
L 639.711 327.627251 
L 640.548 364.803347 
L 643.059 493.628845 
L 643.896 523.318088 
L 644.733 542.164303 
L 645.57 551.458327 
L 646.407 554.04 
L 647.244 553.781833 
L 648.081 552.490996 
L 648.918 551.974661 
L 649.755 552.232829 
L 650.592 552.749163 
L 651.429 552.490996 
L 652.266 551.200159 
L 653.103 547.843984 
L 653.94 541.906135 
L 654.777 532.095777 
L 655.614 517.380239 
L 656.451 497.243187 
L 658.125 444.835219 
L 658.962 418.502151 
L 659.799 397.074263 
L 660.636 384.940398 
L 661.473 384.165896 
L 662.31 395.008924 
L 663.147 415.920478 
L 666.495 521.769084 
L 667.332 537.775458 
L 668.169 548.102151 
L 669.006 553.007331 
L 669.843 554.04 
L 670.68 554.04 
L 671.517 553.523665 
L 672.354 552.232829 
L 673.191 551.458327 
L 674.028 551.200159 
L 674.865 551.200159 
L 675.702 551.458327 
L 677.376 553.007331 
L 679.05 554.04 
L 694.953 554.04 
L 695.79 553.781833 
L 696.627 553.781833 
L 697.464 554.04 
L 699.138 554.04 
L 699.975 553.781833 
L 700.812 552.490996 
L 701.649 550.425657 
L 703.323 545.004143 
L 704.16 543.196972 
L 704.997 542.42247 
L 705.834 543.196972 
L 706.671 544.745976 
L 707.508 546.811315 
L 708.345 548.360319 
L 709.182 549.392988 
L 710.019 549.651155 
L 710.856 549.392988 
L 711.693 548.876653 
L 712.53 548.102151 
L 713.367 547.585817 
L 714.204 547.585817 
L 715.041 548.102151 
L 716.715 549.651155 
L 720.063 553.781833 
L 720.9 554.04 
L 721.737 554.04 
L 722.574 550.425657 
L 723.411 541.647968 
L 724.248 525.641594 
L 725.085 500.85753 
L 725.922 468.586614 
L 727.596 395.008924 
L 728.433 365.061514 
L 729.27 347.506135 
L 730.107 345.957131 
L 730.944 360.672669 
L 731.781 389.329243 
L 734.292 498.534024 
L 735.129 524.867092 
L 735.966 541.906135 
L 736.803 550.941992 
L 737.64 554.04 
L 739.314 554.04 
L 740.151 553.781833 
L 740.988 554.04 
L 744.336 554.04 
L 746.01 553.523665 
L 746.847 553.523665 
L 748.521 554.04 
L 751.032 554.04 
L 751.869 553.523665 
L 754.38 552.749163 
L 756.054 552.749163 
L 756.891 552.232829 
L 758.565 550.683825 
L 759.402 550.16749 
L 760.239 549.909323 
L 761.076 550.425657 
L 763.587 553.523665 
L 764.424 554.04 
L 770.283 554.04 
L 771.957 553.523665 
L 772.794 553.523665 
L 773.631 553.265498 
L 776.142 554.04 
L 782.838 554.04 
L 783.675 553.781833 
L 787.023 551.716494 
L 790.371 551.716494 
L 791.208 551.458327 
L 792.882 550.425657 
L 793.719 550.16749 
L 794.556 550.425657 
L 795.393 550.941992 
L 797.904 553.265498 
L 798.741 553.781833 
L 799.578 554.04 
L 802.089 554.04 
L 803.763 552.490996 
L 804.6 551.458327 
L 805.437 550.683825 
L 806.274 550.425657 
L 807.111 550.683825 
L 807.948 551.200159 
L 808.785 551.974661 
L 809.622 552.232829 
L 810.459 552.232829 
L 812.133 551.200159 
L 812.97 550.941992 
L 813.807 550.425657 
L 814.644 550.425657 
L 815.481 550.16749 
L 816.318 550.16749 
L 817.992 549.651155 
L 819.666 550.16749 
L 820.503 550.683825 
L 821.34 551.458327 
L 822.177 551.974661 
L 824.688 552.749163 
L 825.525 552.749163 
L 826.362 553.265498 
L 827.199 553.523665 
L 828.036 554.04 
L 831.384 554.04 
L 832.221 553.781833 
L 833.058 554.04 
L 835.569 554.04 
L 836.406 553.523665 
L 838.08 551.458327 
L 838.917 550.683825 
L 839.754 550.683825 
L 840.591 551.200159 
L 841.428 552.232829 
L 842.265 552.749163 
L 843.939 552.232829 
L 844.776 552.490996 
L 845.613 554.04 
L 847.287 554.04 
L 848.124 545.520478 
L 848.961 524.608924 
L 849.798 489.24 
L 850.635 440.446375 
L 852.309 331.757928 
L 853.146 292.000159 
L 853.983 274.186614 
L 854.82 282.447968 
L 855.657 314.977052 
L 856.494 364.287012 
L 858.168 472.975458 
L 859.005 513.507729 
L 859.842 539.582629 
L 860.679 551.974661 
L 861.516 554.04 
L 862.353 554.04 
L 863.19 553.265498 
L 864.027 553.265498 
L 864.864 554.04 
L 869.886 554.04 
L 870.723 549.134821 
L 871.56 536.484622 
L 872.397 512.991394 
L 873.234 479.687809 
L 874.908 400.688606 
L 875.745 370.224861 
L 876.582 355.509323 
L 877.419 359.381833 
L 878.256 381.584223 
L 879.093 416.436813 
L 880.767 494.661514 
L 881.604 524.350757 
L 882.441 543.455139 
L 883.278 552.749163 
L 884.115 554.04 
L 884.952 554.04 
L 885.789 553.007331 
L 886.626 552.749163 
L 887.463 553.265498 
L 888.3 554.04 
L 890.811 554.04 
L 894.996 552.749163 
L 896.67 552.749163 
L 898.344 553.265498 
L 899.181 553.781833 
L 900.018 554.04 
L 907.551 554.04 
L 908.388 553.781833 
L 911.736 553.781833 
L 912.573 554.04 
L 914.247 553.523665 
L 915.084 552.749163 
L 915.921 552.232829 
L 916.758 552.232829 
L 917.595 553.007331 
L 918.432 554.04 
L 919.269 554.04 
L 920.106 550.16749 
L 920.943 539.066295 
L 921.78 518.671076 
L 922.617 488.207331 
L 925.128 375.388207 
L 925.965 354.218486 
L 926.802 351.636813 
L 927.639 369.192191 
L 928.476 402.495777 
L 930.15 479.171474 
L 930.987 500.341195 
L 931.824 499.824861 
L 932.661 475.557131 
L 933.498 432.701355 
L 935.172 334.081434 
L 936.009 302.326853 
L 936.846 293.807331 
L 937.683 310.588207 
L 938.52 348.02247 
L 941.031 493.887012 
L 941.868 526.416096 
L 942.705 545.778645 
L 943.542 554.04 
L 945.216 554.04 
L 946.053 552.490996 
L 946.89 551.974661 
L 947.727 552.490996 
L 948.564 553.781833 
L 949.401 554.04 
L 950.238 554.04 
L 951.075 551.974661 
L 951.912 542.42247 
L 952.749 523.834422 
L 953.586 495.436016 
L 956.097 382.100558 
L 956.934 357.058327 
L 957.771 349.055139 
L 958.608 360.156335 
L 959.445 388.038406 
L 961.956 504.988207 
L 962.793 532.095777 
L 963.63 548.102151 
L 964.467 554.04 
L 966.141 554.04 
L 966.978 552.232829 
L 967.815 551.200159 
L 968.652 551.458327 
L 970.326 554.04 
L 971.163 554.04 
L 971.163 554.04 
" style="fill:none;opacity:0.7;stroke:#e41a1c;stroke-linecap:square;stroke-width:1.5;"/>
   </g>
   <g id="line2d_18">
    <path clip-path="url(#pd1d4434f29)" d="M 135 554.04 
L 142.533 554.04 
L 145.044 553.265498 
L 147.555 554.04 
L 148.392 554.04 
L 149.229 553.781833 
L 150.066 553.007331 
L 150.903 551.974661 
L 151.74 551.716494 
L 152.577 551.716494 
L 153.414 552.490996 
L 154.251 553.523665 
L 155.088 554.04 
L 155.925 553.781833 
L 156.762 553.007331 
L 158.436 550.425657 
L 159.273 549.909323 
L 160.11 550.16749 
L 160.947 551.200159 
L 161.784 552.490996 
L 162.621 553.523665 
L 163.458 554.04 
L 165.132 554.04 
L 165.969 553.265498 
L 166.806 552.232829 
L 167.643 551.458327 
L 168.48 550.425657 
L 169.317 549.651155 
L 170.154 549.134821 
L 170.991 549.134821 
L 171.828 549.651155 
L 172.665 550.425657 
L 174.339 553.007331 
L 175.176 554.04 
L 176.85 554.04 
L 177.687 553.007331 
L 178.524 551.458327 
L 179.361 550.16749 
L 180.198 549.392988 
L 181.035 548.876653 
L 182.709 548.360319 
L 183.546 547.327649 
L 184.383 545.520478 
L 186.894 537.000956 
L 187.731 534.67745 
L 189.405 531.063108 
L 190.242 528.739602 
L 191.079 525.899761 
L 193.59 515.3149 
L 195.264 509.118884 
L 196.101 504.988207 
L 196.938 499.308526 
L 197.775 491.821673 
L 200.286 466.00494 
L 201.123 459.550757 
L 201.96 454.903745 
L 204.471 445.351554 
L 205.308 441.220876 
L 206.982 431.926853 
L 207.819 429.087012 
L 208.656 428.31251 
L 209.493 429.861514 
L 210.33 433.217689 
L 212.004 442.511713 
L 214.515 456.710916 
L 217.863 475.557131 
L 219.537 486.658327 
L 223.722 517.896574 
L 224.559 522.027251 
L 225.396 525.383426 
L 226.233 527.448765 
L 227.07 528.739602 
L 228.744 530.80494 
L 229.581 532.095777 
L 230.418 533.128446 
L 232.092 535.71012 
L 232.929 536.226454 
L 233.766 536.484622 
L 234.603 535.968287 
L 237.114 532.870279 
L 237.951 532.612112 
L 238.788 532.612112 
L 239.625 533.128446 
L 240.462 533.902948 
L 241.299 534.161116 
L 242.136 533.644781 
L 242.973 532.612112 
L 243.81 530.288606 
L 244.647 526.93243 
L 245.484 522.801753 
L 246.321 517.896574 
L 247.158 511.958725 
L 248.832 497.759522 
L 252.18 466.263108 
L 253.854 447.158725 
L 255.528 422.632829 
L 257.202 398.3651 
L 258.039 389.845578 
L 258.876 385.7149 
L 259.713 386.231235 
L 260.55 390.361912 
L 262.224 404.044781 
L 265.572 431.668685 
L 266.409 440.446375 
L 268.083 462.390598 
L 269.757 485.36749 
L 270.594 494.919681 
L 271.431 502.406534 
L 272.268 507.828048 
L 273.105 511.700558 
L 275.616 519.445578 
L 276.453 522.801753 
L 278.127 530.288606 
L 278.964 533.128446 
L 279.801 534.419283 
L 280.638 534.161116 
L 281.475 533.128446 
L 282.312 531.83761 
L 283.149 531.063108 
L 283.986 531.063108 
L 284.823 531.83761 
L 285.66 533.128446 
L 286.497 533.902948 
L 287.334 534.161116 
L 289.008 534.161116 
L 289.845 534.67745 
L 290.682 535.968287 
L 292.356 539.324462 
L 293.193 540.098964 
L 294.03 540.098964 
L 294.867 539.324462 
L 296.541 537.259124 
L 297.378 537.000956 
L 298.215 537.259124 
L 299.889 538.291793 
L 300.726 538.291793 
L 301.563 537.775458 
L 303.237 535.71012 
L 304.074 533.902948 
L 304.911 531.063108 
L 305.748 526.93243 
L 306.585 520.994582 
L 307.422 512.991394 
L 308.259 503.439203 
L 310.77 469.619283 
L 314.955 410.757131 
L 316.629 392.169084 
L 319.977 360.672669 
L 321.651 339.761116 
L 324.162 305.424861 
L 324.999 296.389004 
L 325.836 289.676653 
L 326.673 285.029641 
L 327.51 282.189801 
L 328.347 280.640797 
L 329.184 279.608127 
L 330.021 279.091793 
L 330.858 279.608127 
L 331.695 282.189801 
L 332.532 287.611315 
L 333.369 296.130837 
L 334.206 307.490199 
L 335.88 334.597769 
L 339.228 391.394582 
L 340.065 404.819283 
L 340.902 416.178645 
L 341.739 423.923665 
L 342.576 426.505339 
L 343.413 423.665498 
L 344.25 415.920478 
L 345.087 404.819283 
L 346.761 380.551554 
L 347.598 370.741195 
L 348.435 364.545179 
L 349.272 362.221673 
L 350.109 364.287012 
L 350.946 370.483028 
L 351.783 381.067888 
L 352.62 394.750757 
L 355.968 458.25992 
L 356.805 469.361116 
L 357.642 476.589801 
L 358.479 479.429641 
L 359.316 477.364303 
L 360.153 470.135618 
L 360.99 458.001753 
L 362.664 424.44 
L 364.338 390.361912 
L 365.175 377.195378 
L 366.012 367.38502 
L 366.849 360.930837 
L 367.686 357.316494 
L 368.523 356.541992 
L 369.36 358.090996 
L 370.197 361.705339 
L 371.871 372.032032 
L 372.708 375.904542 
L 373.545 377.711713 
L 374.382 376.420876 
L 375.219 373.064701 
L 376.056 368.675857 
L 376.893 365.061514 
L 377.73 363.51251 
L 378.567 365.836016 
L 379.404 372.032032 
L 380.241 382.358725 
L 381.078 396.557928 
L 382.752 433.217689 
L 384.426 472.459124 
L 385.263 488.981833 
L 386.1 501.115697 
L 386.937 508.086215 
L 387.774 509.635219 
L 388.611 506.279044 
L 389.448 498.792191 
L 390.285 487.949163 
L 391.959 458.776255 
L 394.47 408.175458 
L 395.307 395.267092 
L 396.144 387.522072 
L 396.981 386.489402 
L 397.818 392.427251 
L 398.655 404.302948 
L 399.492 420.56749 
L 402.84 494.661514 
L 403.677 509.118884 
L 404.514 520.994582 
L 405.351 530.288606 
L 406.188 536.742789 
L 407.025 540.873466 
L 407.862 542.938805 
L 408.699 543.455139 
L 409.536 543.455139 
L 410.373 543.196972 
L 411.21 543.196972 
L 412.047 543.713307 
L 412.884 544.745976 
L 414.558 546.29498 
L 416.232 547.327649 
L 417.069 547.585817 
L 418.743 547.585817 
L 419.58 547.069482 
L 420.417 546.811315 
L 421.254 546.29498 
L 422.091 546.29498 
L 422.928 546.553147 
L 425.439 549.651155 
L 426.276 550.425657 
L 427.113 550.941992 
L 428.787 551.458327 
L 429.624 551.974661 
L 430.461 552.749163 
L 431.298 553.781833 
L 432.135 554.04 
L 432.972 554.04 
L 433.809 553.523665 
L 434.646 552.490996 
L 436.32 549.909323 
L 437.157 549.392988 
L 437.994 549.651155 
L 438.831 550.425657 
L 440.505 552.490996 
L 441.342 553.007331 
L 442.179 552.749163 
L 443.853 550.683825 
L 444.69 549.392988 
L 445.527 548.618486 
L 446.364 548.360319 
L 447.201 548.618486 
L 448.038 549.392988 
L 448.875 550.425657 
L 449.712 551.200159 
L 450.549 551.200159 
L 451.386 550.16749 
L 452.223 548.618486 
L 453.897 544.745976 
L 454.734 543.971474 
L 455.571 544.229641 
L 456.408 545.262311 
L 457.245 546.811315 
L 458.082 548.102151 
L 458.919 548.618486 
L 459.756 548.360319 
L 461.43 546.29498 
L 462.267 545.778645 
L 463.104 545.520478 
L 463.941 546.036813 
L 465.615 546.553147 
L 466.452 546.553147 
L 468.126 546.036813 
L 468.963 546.29498 
L 469.8 547.069482 
L 470.637 548.360319 
L 472.311 551.458327 
L 473.148 552.232829 
L 473.985 552.232829 
L 474.822 550.683825 
L 475.659 547.069482 
L 476.496 540.098964 
L 477.333 528.739602 
L 478.17 512.47506 
L 479.007 491.305339 
L 482.355 390.361912 
L 483.192 374.613705 
L 484.029 367.38502 
L 484.866 369.450359 
L 485.703 379.518884 
L 486.54 396.816096 
L 488.214 443.544382 
L 489.888 491.821673 
L 490.725 511.44239 
L 491.562 526.674263 
L 492.399 537.259124 
L 493.236 543.455139 
L 494.073 546.036813 
L 494.91 546.553147 
L 497.421 545.004143 
L 498.258 545.262311 
L 499.932 546.29498 
L 500.769 547.069482 
L 501.606 547.069482 
L 502.443 546.036813 
L 503.28 542.164303 
L 504.117 534.419283 
L 504.954 521.769084 
L 505.791 503.181036 
L 506.628 478.913307 
L 509.976 367.643187 
L 510.813 352.411315 
L 511.65 348.02247 
L 512.487 355.251155 
L 513.324 373.064701 
L 514.161 398.623267 
L 516.672 485.36749 
L 517.509 507.053546 
L 518.346 523.05992 
L 519.183 533.902948 
L 520.02 540.873466 
L 520.857 545.004143 
L 521.694 547.327649 
L 522.531 548.102151 
L 523.368 547.843984 
L 524.205 546.553147 
L 525.879 543.196972 
L 526.716 542.42247 
L 527.553 542.680637 
L 528.39 543.713307 
L 530.064 546.811315 
L 530.901 547.843984 
L 531.738 548.360319 
L 533.412 548.360319 
L 534.249 548.618486 
L 535.923 549.651155 
L 536.76 550.425657 
L 541.782 551.974661 
L 542.619 551.974661 
L 544.293 550.941992 
L 545.13 550.16749 
L 545.967 549.909323 
L 546.804 550.16749 
L 547.641 550.941992 
L 549.315 553.007331 
L 550.152 553.781833 
L 550.989 554.04 
L 551.826 554.04 
L 552.663 553.781833 
L 553.5 553.007331 
L 555.174 551.974661 
L 556.848 552.490996 
L 557.685 553.265498 
L 558.522 553.781833 
L 559.359 554.04 
L 560.196 554.04 
L 561.87 553.523665 
L 563.544 553.523665 
L 564.381 553.781833 
L 566.892 553.781833 
L 568.566 553.265498 
L 569.403 553.523665 
L 570.24 553.523665 
L 571.914 554.04 
L 580.284 554.04 
L 581.958 553.523665 
L 584.469 553.523665 
L 586.143 554.04 
L 590.328 554.04 
L 592.002 553.523665 
L 593.676 553.523665 
L 595.35 554.04 
L 597.861 554.04 
L 598.698 553.781833 
L 599.535 553.265498 
L 601.209 553.265498 
L 602.046 553.523665 
L 602.883 553.523665 
L 603.72 553.265498 
L 604.557 551.974661 
L 605.394 550.425657 
L 606.231 549.134821 
L 607.068 548.102151 
L 607.905 548.360319 
L 608.742 549.392988 
L 609.579 550.941992 
L 610.416 552.232829 
L 611.253 552.749163 
L 612.09 552.232829 
L 612.927 550.683825 
L 613.764 549.392988 
L 614.601 548.618486 
L 615.438 548.618486 
L 616.275 549.651155 
L 617.112 550.941992 
L 617.949 551.974661 
L 618.786 552.490996 
L 619.623 552.490996 
L 620.46 551.974661 
L 621.297 551.716494 
L 622.134 551.974661 
L 623.808 553.007331 
L 624.645 553.781833 
L 625.482 554.04 
L 626.319 554.04 
L 627.156 553.781833 
L 628.83 551.200159 
L 630.504 548.102151 
L 631.341 547.069482 
L 632.178 546.811315 
L 633.015 547.069482 
L 633.852 547.585817 
L 635.526 548.102151 
L 636.363 548.102151 
L 637.2 547.585817 
L 638.037 547.327649 
L 638.874 547.585817 
L 639.711 548.618486 
L 640.548 550.16749 
L 641.385 551.974661 
L 642.222 553.007331 
L 643.059 553.523665 
L 643.896 553.265498 
L 644.733 552.490996 
L 645.57 551.458327 
L 646.407 550.941992 
L 647.244 551.200159 
L 649.755 552.749163 
L 650.592 552.749163 
L 653.103 551.200159 
L 653.94 551.200159 
L 654.777 551.716494 
L 655.614 552.490996 
L 656.451 553.523665 
L 657.288 554.04 
L 658.125 554.04 
L 658.962 553.781833 
L 661.473 552.232829 
L 663.147 552.232829 
L 663.984 552.490996 
L 664.821 552.490996 
L 665.658 552.232829 
L 668.169 549.909323 
L 669.006 549.392988 
L 669.843 549.392988 
L 670.68 549.909323 
L 671.517 550.941992 
L 672.354 551.716494 
L 673.191 552.232829 
L 674.028 551.974661 
L 674.865 551.458327 
L 676.539 549.909323 
L 677.376 549.651155 
L 678.213 549.909323 
L 679.05 550.683825 
L 679.887 551.716494 
L 682.398 554.04 
L 683.235 554.04 
L 684.072 553.781833 
L 684.909 550.16749 
L 685.746 541.389801 
L 686.583 525.383426 
L 687.42 501.115697 
L 689.094 433.475857 
L 689.931 398.106932 
L 690.768 369.708526 
L 691.605 353.185817 
L 692.442 351.636813 
L 693.279 364.803347 
L 694.116 389.071076 
L 695.79 444.577052 
L 696.627 461.357928 
L 697.464 463.1651 
L 698.301 448.707729 
L 699.138 420.051155 
L 700.812 344.924462 
L 701.649 314.718884 
L 702.486 299.228845 
L 703.323 302.068685 
L 704.16 323.496574 
L 704.997 358.865498 
L 707.508 485.625657 
L 708.345 516.089402 
L 709.182 536.484622 
L 710.019 548.102151 
L 710.856 553.007331 
L 711.693 553.781833 
L 712.53 552.232829 
L 715.041 545.520478 
L 715.878 544.229641 
L 716.715 543.713307 
L 717.552 544.229641 
L 718.389 545.262311 
L 719.226 546.811315 
L 720.063 548.102151 
L 721.737 549.651155 
L 722.574 549.909323 
L 723.411 550.425657 
L 725.085 551.974661 
L 725.922 553.007331 
L 726.759 553.781833 
L 727.596 554.04 
L 729.27 554.04 
L 730.944 553.007331 
L 731.781 552.232829 
L 732.618 551.974661 
L 733.455 551.974661 
L 735.129 552.490996 
L 736.803 553.523665 
L 737.64 553.523665 
L 740.988 551.458327 
L 741.825 551.458327 
L 742.662 551.974661 
L 744.336 553.523665 
L 745.173 554.04 
L 747.684 554.04 
L 749.358 553.007331 
L 750.195 552.749163 
L 751.869 552.749163 
L 753.543 553.781833 
L 754.38 554.04 
L 761.913 554.04 
L 762.75 553.781833 
L 765.261 553.781833 
L 766.098 554.04 
L 768.609 554.04 
L 769.446 553.523665 
L 770.283 552.749163 
L 771.957 552.232829 
L 773.631 552.749163 
L 774.468 553.523665 
L 775.305 554.04 
L 776.979 554.04 
L 777.816 553.781833 
L 780.327 551.458327 
L 781.164 550.941992 
L 782.001 550.683825 
L 782.838 550.941992 
L 783.675 551.458327 
L 785.349 553.007331 
L 786.186 553.523665 
L 787.023 553.781833 
L 789.534 553.007331 
L 791.208 553.007331 
L 792.045 553.265498 
L 792.882 553.781833 
L 793.719 554.04 
L 807.948 554.04 
L 808.785 553.781833 
L 810.459 553.781833 
L 811.296 554.04 
L 816.318 554.04 
L 817.992 553.007331 
L 819.666 551.458327 
L 820.503 551.200159 
L 821.34 551.458327 
L 822.177 552.490996 
L 823.014 553.265498 
L 823.851 553.781833 
L 824.688 553.781833 
L 825.525 553.265498 
L 826.362 553.007331 
L 827.199 553.781833 
L 828.036 554.04 
L 828.873 554.04 
L 829.71 550.16749 
L 830.547 538.291793 
L 831.384 515.831235 
L 832.221 482.269482 
L 834.732 357.832829 
L 835.569 332.016096 
L 836.406 324.012908 
L 837.243 335.630438 
L 838.08 364.028845 
L 841.428 516.34757 
L 842.265 537.259124 
L 843.102 549.134821 
L 843.939 553.781833 
L 844.776 554.04 
L 845.613 554.04 
L 846.45 552.749163 
L 848.961 548.102151 
L 849.798 546.29498 
L 850.635 545.262311 
L 851.472 545.262311 
L 852.309 546.036813 
L 853.146 547.327649 
L 854.82 550.425657 
L 855.657 551.458327 
L 856.494 551.974661 
L 857.331 552.232829 
L 858.168 552.232829 
L 859.005 551.716494 
L 860.679 550.16749 
L 861.516 549.134821 
L 862.353 548.618486 
L 863.19 548.360319 
L 864.027 548.876653 
L 864.864 549.651155 
L 865.701 551.200159 
L 866.538 552.490996 
L 867.375 553.523665 
L 868.212 554.04 
L 869.049 554.04 
L 869.886 553.781833 
L 871.56 552.232829 
L 873.234 551.200159 
L 874.908 550.683825 
L 877.419 551.458327 
L 879.093 553.007331 
L 880.767 554.04 
L 881.604 553.781833 
L 882.441 553.265498 
L 884.115 551.200159 
L 884.952 550.683825 
L 885.789 550.683825 
L 887.463 552.232829 
L 888.3 553.265498 
L 889.137 553.781833 
L 889.974 553.781833 
L 890.811 553.523665 
L 891.648 553.007331 
L 892.485 552.232829 
L 894.159 551.200159 
L 895.833 550.683825 
L 896.67 550.941992 
L 899.181 553.265498 
L 900.018 553.781833 
L 900.855 554.04 
L 901.692 554.04 
L 904.203 552.490996 
L 905.04 552.232829 
L 905.877 552.232829 
L 906.714 552.490996 
L 907.551 553.007331 
L 909.225 553.523665 
L 911.736 552.749163 
L 913.41 552.749163 
L 915.084 553.781833 
L 915.921 554.04 
L 917.595 554.04 
L 919.269 553.523665 
L 920.106 553.523665 
L 921.78 554.04 
L 924.291 554.04 
L 925.128 553.781833 
L 925.965 553.265498 
L 926.802 553.265498 
L 927.639 553.007331 
L 928.476 553.007331 
L 929.313 552.749163 
L 930.15 551.974661 
L 931.824 548.876653 
L 932.661 547.069482 
L 933.498 545.778645 
L 934.335 545.004143 
L 935.172 545.262311 
L 936.009 545.778645 
L 936.846 546.553147 
L 937.683 547.069482 
L 938.52 546.811315 
L 939.357 545.778645 
L 940.194 543.971474 
L 942.705 537.259124 
L 943.542 535.968287 
L 944.379 535.451952 
L 945.216 535.71012 
L 946.053 536.484622 
L 946.89 537.517291 
L 947.727 538.291793 
L 948.564 538.54996 
L 949.401 538.54996 
L 950.238 538.033625 
L 951.912 536.484622 
L 952.749 535.451952 
L 953.586 534.161116 
L 955.26 532.095777 
L 956.097 531.579442 
L 956.934 531.579442 
L 957.771 532.353944 
L 959.445 534.935618 
L 960.282 535.968287 
L 961.119 536.226454 
L 961.956 535.71012 
L 962.793 534.67745 
L 963.63 533.386614 
L 964.467 532.612112 
L 965.304 532.353944 
L 966.141 533.128446 
L 966.978 534.67745 
L 969.489 541.389801 
L 970.326 542.42247 
L 971.163 542.680637 
L 971.163 542.680637 
" style="fill:none;opacity:0.7;stroke:#377eb8;stroke-linecap:square;stroke-width:1.5;"/>
   </g>
   <g id="patch_3">
    <path d="M 135 576.72 
L 135 77.76 
" style="fill:none;stroke:#000000;stroke-linecap:square;stroke-linejoin:miter;stroke-width:0.8;"/>
   </g>
   <g id="patch_4">
    <path d="M 972 576.72 
L 972 77.76 
" style="fill:none;stroke:#000000;stroke-linecap:square;stroke-linejoin:miter;stroke-width:0.8;"/>
   </g>
   <g id="patch_5">
    <path d="M 135 576.72 
L 972 576.72 
" style="fill:none;stroke:#000000;stroke-linecap:square;stroke-linejoin:miter;stroke-width:0.8;"/>
   </g>
   <g id="patch_6">
    <path d="M 135 77.76 
L 972 77.76 
" style="fill:none;stroke:#000000;stroke-linecap:square;stroke-linejoin:miter;stroke-width:0.8;"/>
   </g>
  </g>
 </g>
 <defs>
  <clipPath id="pd1d4434f29">
   <rect height="498.96" width="837" x="135" y="77.76"/>
  </clipPath>
 </defs>
</svg>
